<svg preserveAspectRatio="none" width="100%" height="100%" overflow="visible" style="display: block;" viewBox="0 0 39.6268 35.5951" fill="none" xmlns="http://www.w3.org/2000/svg">
<path id="Vector 1" d="M1.48773 16.5506C2.22882 15.9993 5.37277 14.2951 13.5952 10.7291C18.9721 8.3972 27.1301 5.75479 31.6856 4.20883C36.2411 2.66286 37.0328 2.48513 37.6294 2.39357C38.226 2.30202 38.6036 2.30202 38.6258 2.64312C38.648 2.98423 38.3034 3.66644 36.4245 6.46749C34.5457 9.26853 31.1431 14.1677 27.3184 18.9594C23.4937 23.7511 19.35 28.2868 16.8028 30.8752C14.2556 33.4636 13.4306 33.9672 12.8034 34.3111C12.1762 34.655 11.7718 34.8239 11.5852 34C11.3986 33.1762 11.4421 31.3546 12.1672 24.7672C12.8922 18.1799 14.2975 6.88194 15.479 2.81125C16.6605 -1.25945 17.5757 2.23943 19.146 6.34267C20.7163 10.4459 22.9141 15.0475 24.7226 18.3182C29.5307 27.0142 33.9592 29.2057 34.8944 29.6626C36.364 30.3806 32.1839 26.7947 28.284 24.6333C25.6309 23.1629 21.3499 21.3886 17.0891 19.8483C12.8283 18.3079 8.6512 17.1714 5.99892 16.3705C3.34664 15.5695 2.34577 15.1385 1.00022 14.468" stroke="var(--stroke-0, #121212)" stroke-width="2" stroke-linecap="round" stroke-linejoin="round"/>
</svg>
