<svg preserveAspectRatio="none" width="100%" height="100%" overflow="visible" style="display: block;" viewBox="0 0 34.005 54.8444" fill="none" xmlns="http://www.w3.org/2000/svg">
<g id="Group 4">
<path id="Vector 16" fill-rule="evenodd" clip-rule="evenodd" d="M27.5134 36.2464C26.4891 36.8066 25.3601 37.4242 25.099 37.8911C24.4949 38.9711 24.7441 40.6896 25.0049 42.4885C25.2448 44.1436 25.4949 45.8666 25.099 47.2231C23.9265 51.2409 12.3392 52.9261 9.14938 47.2231C5.85503 43.7759 4.36488 28.559 6.97476 18.1901C7.07303 17.7385 7.16903 17.2922 7.2639 16.8522C9.12758 8.19862 10.4708 1.96155 17.1164 5.45268C22.7791 8.42741 27.5638 25.0596 21.8408 26.005C20.7874 26.179 18.4293 25.8754 17.8493 25.7077C17.6567 25.652 17.3809 25.1517 17.0997 24.6419C16.789 24.0789 16.4721 23.5043 16.2543 23.5043C15.3864 23.5043 15.0944 27.1334 15.0944 27.9111C15.0944 28.1433 15.0655 28.6472 15.0335 29.2035C14.9585 30.5099 14.8667 32.1054 15.0944 31.1513C15.953 27.5518 33.2891 30.0869 29.2531 35.1438C29.039 35.412 28.3078 35.8119 27.5134 36.2464ZM24.2893 36.0191C24.8718 35.7204 25.4719 35.4127 25.8673 34.9662C28.2633 32.2596 14.1743 27.1086 16.5763 35.8304C16.6723 36.1789 17.1 36.3045 17.512 36.4256C17.8238 36.5172 18.1265 36.6062 18.2701 36.7872C19.1981 37.9584 18.148 42.071 16.1099 42.0772C11.0006 42.0928 12.6527 17.0074 16.7947 18.9707C17.5369 19.3226 17.8 20.2769 18.0543 21.1998C18.3791 22.3782 18.6898 23.5054 19.9664 23.2611C24.2381 22.4437 18.5029 8.27982 16.0522 7.20781C10.3011 4.69204 9.2839 17.8235 9.14712 19.5936L9.144 19.632C9.1188 19.9554 9.04035 20.5352 8.93472 21.314C7.92572 28.7585 4.45295 54.385 21.6194 47.9802C23.649 47.223 23.3072 41.3514 22.557 37.5669C22.6995 36.8342 23.4774 36.4354 24.2893 36.0191Z" fill="var(--fill-0, black)" stroke="var(--stroke-0, black)" stroke-width="2" stroke-linecap="round" stroke-linejoin="round"/>
<path id="Vector 17" d="M25.3397 52.7736C25.4185 52.7572 26.7858 51.8838 28.9701 50.398C30.9867 49.0264 31.1903 47.4411 31.3305 45.779C31.4061 44.8831 30.41 43.3302 29.802 41.8232C29.9312 40.8874 30.4535 40.0701 31.1151 39.4785C31.5729 39.1063 32.2782 38.5877 33.005 38.0534" stroke="var(--stroke-0, black)" stroke-width="2" stroke-linecap="round" stroke-linejoin="round"/>
<path id="Vector 18" d="M5.00393 15.1569C5.28703 14.6791 5.13185 14.0676 4.65734 13.7913C4.18282 13.5149 3.56866 13.6783 3.28556 14.1561L4.14475 14.6565L5.00393 15.1569ZM5.46978 6.95536L6.38707 7.3419V7.3419L5.46978 6.95536ZM11.3278 1.47313L11.6709 2.4073L11.3278 1.47313ZM22.8961 9.98818C23.0836 10.5048 23.657 10.766 24.1768 10.5716C24.6965 10.3772 24.9658 9.80072 24.7782 9.28407L23.8371 9.63612L22.8961 9.98818ZM4.14475 14.6565L3.28556 14.1561C3.25085 14.2147 3.22266 14.2585 3.20085 14.2901C3.1784 14.3227 3.16723 14.3356 3.16729 14.3356C3.16772 14.3351 3.17335 14.3286 3.1842 14.3183C3.19478 14.3082 3.21408 14.2908 3.24213 14.2702C3.28877 14.2359 3.41436 14.1521 3.60763 14.1208C3.83405 14.0842 4.07925 14.1329 4.2817 14.2759C4.4563 14.3991 4.53527 14.547 4.56511 14.6124C4.61912 14.7306 4.61213 14.8003 4.60774 14.7269C4.59141 14.4541 4.67234 13.7697 4.86203 12.7975C5.23033 10.9098 5.8962 8.47477 6.38707 7.3419L5.46978 6.95536L4.55249 6.56882C3.97568 7.90001 3.27669 10.5011 2.89823 12.4408C2.71453 13.3823 2.5766 14.3093 2.61035 14.8732C2.61847 15.0089 2.64081 15.2393 2.74274 15.4625C2.79654 15.5803 2.90412 15.7667 3.1122 15.9136C3.34814 16.0802 3.63169 16.1377 3.90156 16.094C4.32581 16.0253 4.58628 15.7307 4.66554 15.6401C4.78953 15.4985 4.90202 15.329 5.00393 15.1569L4.14475 14.6565ZM5.46978 6.95536L6.38707 7.3419C7.23255 5.39068 9.09201 3.38278 11.6709 2.4073L11.3278 1.47313L10.9847 0.538958C7.86528 1.71891 5.6054 4.13888 4.55249 6.56882L5.46978 6.95536ZM11.3278 1.47313L11.6709 2.4073C14.3471 1.395 16.8001 2.38937 18.8467 4.19887C20.9033 6.01727 22.3609 8.51423 22.8961 9.98818L23.8371 9.63612L24.7782 9.28407C24.1411 7.52932 22.5075 4.74821 20.1841 2.694C17.8508 0.630891 14.6352 -0.841897 10.9847 0.538958L11.3278 1.47313Z" fill="var(--stroke-0, black)"/>
<path id="Vector 19" d="M25.8613 26.6545C25.455 27.0136 25.4311 27.6428 25.808 28.0597C26.185 28.4767 26.82 28.5236 27.2263 28.1645L26.5438 27.4095L25.8613 26.6545ZM27.8921 26.2276L28.6219 26.9378C28.6554 26.9038 28.6863 26.8673 28.7143 26.8286L27.8921 26.2276ZM29.4641 21.4613L30.4649 21.5712C30.4678 21.5331 30.4684 21.4949 30.4668 21.4566L29.4641 21.4613ZM30.1045 16.6667C30.0572 16.117 29.5712 15.6932 29.0189 15.7199C28.4667 15.7466 28.0573 16.2139 28.1046 16.7635L29.1046 16.7151L30.1045 16.6667ZM26.5438 27.4095L27.2263 28.1645C27.2239 28.1667 27.2319 28.1596 27.2633 28.1342C27.2914 28.1114 27.3257 28.084 27.3707 28.0477C27.4584 27.9772 27.5739 27.884 27.7055 27.7741C27.967 27.5555 28.2998 27.2645 28.6219 26.9378L27.8921 26.2276L27.1624 25.5174C26.5978 26.0901 26.0747 26.466 25.8613 26.6545L26.5438 27.4095ZM27.8921 26.2276L28.7143 26.8286C29.7631 25.3804 30.2817 24.0273 30.4649 21.5712L29.4641 21.4613L28.4632 21.3514C28.3029 23.5008 27.8842 24.5021 27.07 25.6265L27.8921 26.2276ZM29.4641 21.4613L30.4668 21.4566C30.4191 20.3182 30.2624 18.5004 30.1045 16.6667L29.1046 16.7151L28.1046 16.7635C28.2644 18.6193 28.4159 20.3826 28.4613 21.4661L29.4641 21.4613Z" fill="var(--stroke-0, black)"/>
<path id="Vector 20" d="M11.0543 53.8442C10.7682 53.6936 9.21818 52.5898 6.91784 50.8346C5.55693 49.7962 4.66219 48.2592 3.56342 46.3647C3.0721 45.5176 2.8727 44.844 2.4935 43.0824C2.1143 41.3207 1.60156 38.4765 1.33742 36.7781C1.07328 34.6132 1.0491 33.9632 1.01246 33.4484C1 33.1031 1 32.5872 1 32.0556" stroke="var(--stroke-0, black)" stroke-width="2" stroke-linecap="round" stroke-linejoin="round"/>
</g>
</svg>
