<svg preserveAspectRatio="none" width="100%" height="100%" overflow="visible" style="display: block;" viewBox="0 0 144.804 54.4908" fill="none" xmlns="http://www.w3.org/2000/svg">
<g id="Group 3">
<path id="Vector 10" d="M8.11897 46.2104C7.5149 46.2104 4.95634 46.8581 2.71602 47.9631C1.9312 48.3502 1.47234 49.1106 1.11325 49.8115C0.94314 50.1435 0.946945 50.4939 1.2475 50.9686C2.67311 53.2202 5.71342 53.3954 8.19263 53.4886C10.3693 53.5704 12.7309 51.3539 13.6007 49.6405C13.8062 49.2356 13.545 48.6947 13.3516 48.3192C12.8667 47.7009 12.0895 47.3172 10.6851 47.0673C9.75748 46.951 8.39338 46.856 6.81624 46.7015" stroke="var(--stroke-0, black)" stroke-width="2" stroke-linecap="round" stroke-linejoin="round"/>
<path id="Vector 11" d="M22.827 34.4674C22.0546 34.5003 20.791 34.8185 19.5418 36.0424C18.1442 37.4116 18.3107 38.9136 18.4495 39.9002C18.5756 40.7968 20.6954 42.1478 23.6456 43.8481C27.194 45.8931 32.155 45.603 35.4633 45.1241C37.2566 44.8645 37.5361 42.4836 38.3531 40.124C38.5473 39.5634 38.575 39.0597 38.4558 38.612C37.9767 36.8111 34.0669 35.3492 30.3444 34.0819C28.8574 33.7955 27.5933 33.6837 26.5503 33.7468C26.039 33.81 25.5645 33.9363 24.7926 34.289" stroke="var(--stroke-0, black)" stroke-width="2" stroke-linecap="round" stroke-linejoin="round"/>
<path id="Vector 12" d="M67.8757 1.64401C67.1204 1.83269 64.64 3.00179 61.1036 4.86854C58.8672 6.04904 57.5981 7.21471 55.9457 9.40429C54.7692 10.9633 53.2724 13.6918 52.0712 16.2888C49.7973 21.2048 49.1857 24.6842 49.0115 26.251C48.8599 27.6158 49.2742 29.1087 49.9785 30.845C50.8034 32.8784 53.0999 34.652 55.7269 36.5259C57.0889 37.4974 58.724 38.1912 61.4164 39.1738C64.1087 40.1564 67.8635 41.3252 73.5436 42.1633C79.2237 43.0014 86.7153 43.4734 94.577 43.385C102.439 43.2965 110.444 42.6333 115.3 42.1245C121.644 41.4599 123.457 40.8265 125.258 40.1018C126.741 39.5048 129.353 38.3729 131.963 37.4444C137.04 35.6389 140.081 34.9174 140.789 34.5713C141.95 34.0037 142.706 31.3314 143.644 24.8985C144.366 19.9502 142.497 16.8401 141.129 14.4071C139.906 12.2326 137.073 9.81154 134.411 7.54717C132.952 6.30573 131.965 5.8772 129.223 5.08732C126.947 4.43146 122.8 3.5266 111.912 2.75655C101.024 1.98649 83.5012 1.44738 74.3431 1.17883C65.185 0.910283 64.9222 0.928644 64.5949 1.33992" stroke="var(--stroke-0, black)" stroke-width="2" stroke-linecap="round" stroke-linejoin="round"/>
<path id="Vector 13" d="M68.4273 21.0038C68.1466 21.2254 67.5981 21.971 67.4959 22.5451C67.402 23.0721 67.9696 23.7999 68.5569 24.6217C68.9937 25.2329 69.6647 25.5446 70.4846 25.6479C71.1344 25.7299 71.8715 25.2753 72.6423 24.7059C73.2389 24.2652 73.4866 23.6578 73.6418 23.0913C73.7919 22.5439 73.5258 21.9012 73.1683 21.2891C72.5647 20.2553 70.81 19.8152 69.3575 19.7453C68.8096 19.719 68.3174 20.2259 67.9117 20.7261C67.558 21.1621 67.8809 22.007 68.1847 22.8233C68.4178 23.4495 68.8574 23.7972 69.3365 23.9801C69.8448 24.1741 70.46 23.8827 71.1304 23.5111C72.0984 22.9745 72.662 22.026 72.9567 21.1358C73.3618 19.9119 73.0064 18.7333 72.7349 18.0818C72.6111 17.7848 72.4371 17.5921 72.1907 17.4436C71.1444 16.813 69.6901 17.6046 68.3699 18.425C67.45 18.9966 66.8103 19.8671 66.3689 20.5986C65.9095 21.3598 65.9715 22.2724 66.1014 23.0623C66.2548 23.9946 67.0161 24.662 67.6047 25.1711C68.7667 26.1764 70.3518 25.8415 71.6872 25.4547C72.2714 25.2854 72.5567 24.6063 72.7233 23.8586C73.2049 21.6973 71.1238 19.4422 70.1194 18.4532C69.7528 18.0923 69.0476 18.2444 68.3576 18.3911C67.6546 18.5406 66.9313 19.2033 66.2413 19.9275C65.9363 20.2476 65.8939 20.615 65.8921 20.9426C65.8841 22.4297 68.5712 24.2115 71.3167 25.3897C72.6264 25.9516 73.8575 25.4463 74.5269 25.0662C75.1118 24.7341 75.2618 23.7774 75.4283 22.7357C75.6009 21.6553 75.1727 20.4584 74.5322 19.3626C74.0004 18.453 73.2926 18.0642 72.5571 17.7444C71.3243 17.2083 69.6204 17.1208 68.2032 17.2402C67.6439 17.2873 67.4283 17.4656 67.2651 17.7107C66.3308 19.1137 67.4478 22.7014 68.2453 24.9042C68.3908 25.3059 68.6699 25.6161 69.0147 25.8502C69.7401 26.3425 70.6688 26.3157 71.5091 26.0817C72.6065 25.7761 73.2178 24.7049 73.6537 23.6169C74.3428 21.8967 74.2973 20.341 74.2455 19.6742C74.2216 19.3665 74.0902 19.1347 73.9174 18.9456C73.7446 18.7566 73.5055 18.6207 73.2436 18.56C72.7164 18.4376 72.0134 18.8119 71.294 19.3677C70.1942 20.2175 70.1609 21.5355 70.1382 22.9271C70.1326 23.2686 70.3774 23.5193 70.7984 23.7036C71.8327 24.1566 73.2316 23.9484 74.3471 23.6051C74.8302 23.4564 75.0754 23.1683 75.2729 22.7495C76.1232 20.947 75.4692 19.1325 74.7763 17.5006C74.5255 16.9099 73.8218 16.4265 72.9527 15.9363C72.1305 15.6741 71.4635 15.6 70.9685 15.6922C70.7323 15.7843 70.5269 15.9685 70.3862 16.708" stroke="var(--stroke-0, black)" stroke-width="2" stroke-linecap="round" stroke-linejoin="round"/>
<path id="Vector 14" d="M89.0561 18.8098C88.3784 18.9545 86.6565 19.4388 85.8541 20.4024C84.7523 21.7255 85.351 24.2196 86.3274 25.9577C86.9461 27.0593 88.7663 27.2368 90.7499 27.4574C92.5579 27.6586 93.8675 26.6852 94.8525 25.6589C95.7374 24.7369 94.94 23.0179 94.7118 21.9375C94.5993 21.4048 94.1877 20.8686 93.6274 20.2675C91.7133 18.214 88.0401 18.0036 86.9346 18.036C86.6706 18.0437 86.4427 18.2644 86.2678 18.481C85.9122 18.9215 85.8641 19.6199 85.9547 20.4306C86.1937 22.5704 88.5658 24.0093 89.9027 24.7048C91.6344 25.6057 94.5522 25.0962 96.1851 24.4505C96.5419 24.3094 96.7522 24.1377 96.9337 23.9456C98.0058 22.811 96.4834 19.4308 95.28 17.7483C94.747 17.003 93.8629 16.7927 93.2028 16.7001C91.7763 16.5001 89.9184 17.3942 88.5141 18.6649C86.8948 20.1301 88.2333 23.3781 88.6577 24.3706C88.8547 24.8314 89.4275 25.0648 90.0083 25.2557C90.6087 25.453 91.3321 25.2781 92.0204 25.1173C92.6867 24.9616 93.4609 24.0646 94.4066 22.9786C95.2329 22.0298 95.3486 20.7825 95.2833 19.8068C95.2561 19.4012 94.9929 19.2132 94.7098 19.1234C93.1897 18.6416 91.6815 19.7416 91.2171 20.2907C90.0137 21.7136 90.7558 23.9561 91.8235 27.4592C92.331 29.124 93.2656 30.1139 94.1304 30.6394C94.9979 31.1666 96.1335 30.9971 97.0691 30.8392C97.8855 30.7015 98.3692 29.7366 98.734 28.6873C99.0623 27.743 99.0526 26.3871 98.8714 24.8891C98.7435 23.8326 97.9928 23.2398 97.3802 22.7903C95.8412 21.661 92.5839 21.0304 90.9202 21.0466C90.253 21.0531 90.0243 22.288 89.8881 23.3684C89.7982 24.0819 89.9675 24.6433 90.2535 25.1527C90.5056 25.6016 91.295 25.7095 92.2699 25.676C93.9768 25.6173 94.7618 24.4702 95.4306 23.539C95.8249 22.99 95.7393 21.9638 95.6359 20.9511C95.5666 20.2729 94.9019 19.5296 94.0021 18.6852C92.4988 17.2744 89.7168 17.7939 88.3591 18.3151C86.8407 18.8981 87.4896 21.0767 87.7605 23.0565C87.8734 23.8816 88.4554 24.5494 89.0715 25.2275C91.0262 27.3791 95.3356 27.0511 96.1912 26.9617C96.571 26.922 96.8059 26.6934 96.9712 26.4457C97.626 25.4643 96.9737 23.0335 95.7539 19.8378C95.5277 19.2452 95.2494 19.0472 94.9686 18.8954C93.4723 18.0864 91.293 18.8463 89.1702 19.7804C88.6834 19.9946 88.5336 20.3373 88.475 20.702C88.7037 22.2725 89.4212 23.8141 90.4108 25.2174C90.7011 25.4118 91.0414 25.4302 91.392 25.4491" stroke="var(--stroke-0, black)" stroke-width="2" stroke-linecap="round" stroke-linejoin="round"/>
<path id="Vector 15" d="M113.157 17.2807C112.545 17.2807 110.9 17.3706 109.235 17.5111C107.424 17.664 106.031 18.12 105.45 18.5293C104.705 19.0537 104.485 20.1814 104.377 21.3053C104.258 22.5462 104.793 23.9083 105.663 25.1121C106.946 26.8876 110.027 28.0606 113.008 28.9351C113.617 29.1141 114.177 28.8945 114.591 28.6981C115.359 28.334 115.727 27.6284 116.011 27.0236C116.658 25.6458 116.142 24.1773 115.207 21.6554C114.129 18.7473 112.187 17.7511 110.829 17.1063C110.319 16.8644 109.623 17.354 108.938 17.9443C107.701 19.01 108.321 20.877 108.698 22.1626C108.898 22.8454 109.521 23.5654 110.441 24.3357C112.847 26.3493 116.052 24.9553 116.555 24.5759C117.409 23.9324 117 21.6566 116.393 19.4644C116.277 19.0425 116.09 18.7837 115.829 18.566C114.378 17.3537 111.587 18.4086 110.438 18.9856C109.523 19.445 109.452 20.8292 109.433 23.2655C109.423 24.6369 109.869 25.65 110.32 26.2799C111.234 27.5556 113.319 27.2843 115.302 26.9646C116.668 26.7442 117.812 25.9362 118.628 25.4038C119.171 25.0492 119.331 24.3131 119.358 23.3738C119.413 21.492 118.01 20.3575 116.893 19.5132C114.932 18.0315 112.66 18.4096 110.982 18.4627C110.323 18.4836 110.084 18.8046 109.937 19.1247C109.629 19.7917 109.817 20.695 110.133 21.5641C110.441 22.4102 111.436 22.8743 112.7 23.1478C115.813 23.8217 117.346 22.1064 118.274 21.1015C118.741 20.5963 118.506 19.6038 118.318 18.7338C118.187 18.128 117.501 17.6418 116.219 17.1137C114.392 16.3608 112.689 16.5832 111.9 16.6906C111.264 16.7772 110.831 17.1417 110.461 17.6159C109.512 18.8348 109.71 21.5076 110.351 23.9332C110.466 24.3693 110.771 24.5791 111.064 24.8135C113.653 26.882 118.847 25.8254 119.159 25.2386C120.177 23.3244 118.915 21.8602 118.307 20.9056C117.684 19.9271 115.941 20.2986 114.77 20.4354C114.465 20.471 114.146 20.6143 113.871 20.9246C113.238 21.6394 113.159 22.5932 113.237 23.3216C113.473 25.514 116.062 27.2108 117.416 27.9283C118.241 28.3657 119.108 28.2966 119.653 28.2175C120.201 28.1381 120.709 27.6481 121.246 26.8039C122.585 24.7031 121.999 22.1566 121.395 20.7804C120.719 19.2414 117.959 18.8687 116.441 18.5372C116.06 18.4539 115.653 18.4961 115.314 18.6194C114.646 18.862 114.272 19.6296 114.007 20.356C113.536 21.6484 113.865 22.8773 114.25 23.3266C114.496 23.615 115.16 23.658 115.648 23.6386C116.135 23.6193 116.506 23.4423 116.781 23.1706C117.055 22.8988 117.222 22.5376 117.178 22.1206C117.081 21.196 116.283 20.441 115.496 19.8068C113.73 18.3844 111.851 18.7658 110.539 18.9753C109.993 19.0625 109.761 19.4137 109.632 19.772C109.362 20.5256 109.696 21.6929 110.069 22.8438C110.527 24.2553 112.442 24.9783 114.666 25.5111C115.184 25.6352 115.584 25.5557 115.813 25.4147C116.041 25.2737 116.096 25.0109 116.03 24.7584C115.964 24.5059 115.776 24.2717 115.551 24.1323C115.325 23.993 115.067 23.9556 114.689 23.9171" stroke="var(--stroke-0, black)" stroke-width="2" stroke-linecap="round" stroke-linejoin="round"/>
</g>
</svg>
