<svg preserveAspectRatio="none" width="100%" height="100%" overflow="visible" style="display: block;" viewBox="0 0 52.9469 48.273" fill="none" xmlns="http://www.w3.org/2000/svg">
<g id="Group 1">
<path id="Vector 3" d="M11.131 8.12662C10.9911 8.97587 10.8033 10.2598 10.6936 11.827C10.516 14.3643 9.96357 17.1294 8.79525 22.9538C7.69355 28.446 7.15337 30.459 7.0778 33.953C7.02312 36.4813 8.38925 38.0984 9.86294 39.9304C10.1991 40.3483 10.5239 40.6237 10.9245 40.8712C11.7702 41.3938 16.4716 41.4015 23.2376 41.3182C26.8321 41.274 28.9753 41.9043 31.4489 42.4443C34.2204 43.0492 36.7897 43.0943 38.4827 43.0566C40.2277 43.0176 41.7732 40.9182 43.6151 38.4907C44.8644 36.844 44.9834 34.7383 45.9747 30.5406C46.8015 27.0392 46.0758 23.2147 45.2108 20.4692C44.2129 17.302 44.0823 15.5951 43.7784 13.885C43.4937 12.2835 43.584 10.7851 43.8373 9.07161C43.955 8.27594 43.5581 7.65619 43.114 7.214C42.156 6.26006 40.5978 5.80374 37.9337 5.21854C34.2548 4.41041 30.117 4.69885 27.9967 4.52576C25.4323 4.31642 21.1201 4.20681 18.4783 4.31293C17.0837 4.36896 15.2638 4.63694 13.2705 4.659C12.5492 4.66698 11.9777 5.13854 11.4745 5.58424C11.0874 6.09803 10.8504 6.67372 10.7101 7.26833C10.6395 7.56787 10.5699 7.86293 10.3575 8.51084" stroke="var(--stroke-0, black)" stroke-width="2" stroke-linecap="round" stroke-linejoin="round"/>
<path id="Vector 4" d="M11.9448 5.15213C11.9674 4.73589 12.2847 3.24789 13.4372 2.18322C15.5674 0.215503 17.3446 1.26195 17.9385 1.40981C19.1238 1.70492 19.1524 3.52642 19.6883 4.44639C20.2845 5.46994 23.6993 2.65209 27.358 1.71369C29.0014 1.29218 30.211 1.30827 30.756 1.41864C31.8999 1.65033 31.3521 3.42725 31.4869 3.8619C32.0074 5.5411 35.7222 2.5537 38.0618 1.93099C39.8119 1.46519 41.2072 1.38521 41.897 1.52572C42.5765 1.66411 42.9556 2.32832 43.161 2.95808C43.3781 3.62385 42.7698 4.52854 42.488 5.4038C42.0317 6.82097 45.6826 5.16441 46.7523 5.29389C47.6707 5.40505 47.9687 6.51533 48.3106 7.07587C48.6516 7.63497 48.7237 8.35126 48.5732 9.06182C48.2967 10.3679 46.2449 10.7826 45.0321 11.5745C44.7641 11.7494 44.6139 12.0425 44.6547 12.2391C44.8702 13.2759 46.56 13.56 47.6475 14.2174C48.8498 14.9443 49.857 15.3192 50.2574 15.6042C51.1193 16.2179 49.042 17.4491 47.8936 18.4315C46.834 19.3378 46.2646 20.1325 46.2146 20.6933C46.0918 22.0708 49.0844 21.636 50.8787 22.4063C51.3252 22.598 51.6523 22.9829 51.827 23.3168C52.1472 23.9287 51.7694 24.6596 51.3641 25.2431C50.6273 26.3038 49.0056 26.4053 47.7229 26.8425C47.4089 26.9495 47.0858 27.0371 47.0445 27.2431C46.7859 28.5322 48.7231 29.5688 49.3123 30.8855C49.4616 31.2193 49.4161 31.6507 49.2782 32.009C48.6976 33.5181 46.937 34.1599 46.0004 35.2596C45.2528 36.1372 47.6853 37.0251 48.2056 38.1906C48.4569 38.7533 48.4157 39.4318 48.2889 40.0983C48.034 41.4369 46.678 42.2839 45.4234 43.0775C44.7547 43.5005 44.0042 43.6184 43.3783 43.6179C42.7699 43.6175 42.1919 42.9446 41.6925 42.6582C40.5445 41.9999 39.875 45.2358 38.4178 46.2732C37.1931 47.1452 35.8217 47.2864 35.1562 47.272C33.894 47.2449 33.8544 45.1581 33.2626 44.0136C33.1105 43.7193 32.9037 43.4553 32.6594 43.3688C31.5274 42.9677 30.3274 44.744 28.8885 45.6116C27.7639 46.2897 26.3969 46.3613 25.175 46.1069C23.7581 45.8119 23.072 44.1289 22.6398 43.0858C22.4466 42.6194 21.3071 43.5818 20.0317 44.4664C18.8374 45.2947 17.3146 45.3867 15.7834 45.5974C14.9748 45.7087 14.2154 45.7031 13.5891 45.412C12.3543 44.8379 12.3914 43.1637 11.762 42.2851C11.041 41.2786 9.13892 42.8646 7.37737 42.54C3.3103 41.7905 1.37328 39.5567 1.11486 39.1848C0.414255 38.1768 3.39443 37.9203 4.68441 37.4594C5.97519 36.9983 6.89048 36.6546 7.23197 36.3177C8.26175 35.302 4.07297 34.0099 3.0562 32.9286C1.81375 31.6074 1.70224 30.0166 1.90644 29.4926C2.33827 28.3845 4.37638 28.7091 6.15912 28.3358C6.61455 28.2405 7.05013 28.2417 7.32879 28.0798C7.60746 27.9178 7.72052 27.6177 7.73256 27.29C7.75749 26.6116 7.28098 25.9129 6.6113 25.2117C4.86567 23.3841 2.24741 23.1203 1.1959 22.6372C0.82545 22.467 1.05669 22.0348 1.26561 21.7727C2.03781 20.8041 5.42819 21.0411 7.59528 20.7861C7.90603 20.7495 8.18824 20.6 8.40771 20.4024C9.29414 19.6041 8.67123 18.0395 8.53182 15.9076C8.42668 14.2997 7.23185 13.698 6.96341 13.1981C6.83295 12.9552 6.99243 12.629 7.18601 12.3936C8.05736 11.334 9.72052 11.8982 10.2563 11.8509C11.6481 11.7281 9.28577 8.49561 8.95848 7.28149C8.87893 6.98642 8.97891 6.67671 9.12658 6.41822C9.27424 6.15972 9.52298 5.95195 9.80999 5.913C10.097 5.87405 10.4147 6.01022 10.7147 6.14845C11.0146 6.28668 11.2871 6.42285 11.6364 6.63191" stroke="var(--stroke-0, black)" stroke-width="2" stroke-linecap="round" stroke-linejoin="round"/>
<path id="Vector 5" d="M7.67923 31.7117C7.78983 31.3442 8.69567 30.406 9.95666 29.9592C11.4854 29.4175 13.1396 30.0735 14.5995 31.0056C16.0299 31.9188 17.7029 32.3235 19.3477 32.5813C20.7678 32.8039 22.1412 32.0423 23.8125 31.8339C25.9042 31.573 27.2996 32.0553 29.7942 32.2665C31.765 32.4333 33.6839 32.965 35.0253 33.4141C36.3747 33.8658 37.8458 33.2039 39.3512 33.3721C40.5253 33.4453 41.5349 33.5007 42.1595 33.5833C42.4689 33.6351 42.7628 33.7072 43.2019 34.4371" stroke="var(--stroke-0, black)" stroke-width="2" stroke-linecap="round" stroke-linejoin="round"/>
<path id="Vector 6" d="M23.1851 31.9765C23.1187 31.3897 23.5658 29.5146 24.1311 27.6854C24.3401 26.7312 24.5023 25.7863 24.6148 24.5737C24.6635 23.8089 24.6954 22.7408 24.5318 20.9096" stroke="var(--stroke-0, black)" stroke-width="2" stroke-linecap="round" stroke-linejoin="round"/>
<path id="Vector 7" d="M25.6845 25.5787C25.5587 25.514 25.5232 25.06 25.7685 24.3418C25.8882 23.9914 26.3863 23.8824 26.8581 23.8627C27.3299 23.843 27.8595 23.9702 28.1313 24.2584C28.4031 24.5466 28.4009 24.9919 28.1955 25.3168C27.7631 26.0005 26.7516 26.1563 25.9123 26.3318C24.254 26.6786 23.1315 25.4932 22.5581 25.6509C22.319 25.7167 22.485 26.2545 22.7025 26.595C22.9199 26.9356 23.2604 27.1906 23.8663 27.3379C24.4723 27.4851 25.3334 27.5169 26.2205 27.5497" stroke="var(--stroke-0, black)" stroke-width="2" stroke-linecap="round" stroke-linejoin="round"/>
<path id="Vector 8" d="M25.341 15.8993C25.1555 16.2439 24.3398 17.3197 24.0798 18.093C23.9511 18.4758 24.1812 18.8977 24.4518 19.2329C24.9961 19.907 26.0601 20.1396 27.1253 20.1708C27.654 20.1863 28.1547 20.0118 28.5564 19.7709C29.3524 19.2935 29.6835 18.3719 29.8096 17.4886C29.8715 17.0547 29.61 16.6372 29.261 16.3759C28.912 16.1147 28.4017 16.0191 27.6334 15.9053C26.8652 15.7914 25.8544 15.6623 23.9163 15.8142" stroke="var(--stroke-0, black)" stroke-width="2" stroke-linecap="round" stroke-linejoin="round"/>
<path id="Vector 9" d="M26.2824 15.1516C26.4742 14.5537 27.5027 12.7833 29.1828 11.5554C29.5889 11.2587 30.0856 11.2873 30.4922 11.3892C30.8988 11.4911 31.2504 11.7672 31.5273 12.1686C31.8043 12.57 31.9961 13.0884 32.0299 13.58C32.0947 14.5241 31.3444 15.191 30.8895 15.6601C29.6581 16.93 34.1268 16.7349 35.2103 17.27C35.6951 17.5094 35.7912 18.1413 35.6785 18.5291C35.1775 20.2522 32.7507 19.8953 31.7262 20.0844C30.9251 20.2321 31.2409 21.8121 31.1586 22.6686C31.1216 23.054 30.5252 23.1418 30.0827 23.1198C29.204 23.076 28.698 22.2656 28.3714 21.729C28.0286 21.1658 24.7144 22.3921 20.6688 22.3185C19.3139 22.2939 19.4207 21.6397 19.582 21.1758C19.9003 20.2602 20.5491 19.5054 21.3377 18.9032C22.1672 18.2698 23.2638 18.367 23.7988 18.1212C24.4554 17.8196 23.1925 16.3156 23.2426 15.1958C23.298 13.9546 24.6425 13.2307 25.547 12.751C26.0024 12.5873 26.4504 12.5855 26.809 12.7748C27.1676 12.964 27.4233 13.3442 27.8788 14.8865" stroke="var(--stroke-0, black)" stroke-width="2" stroke-linecap="round" stroke-linejoin="round"/>
</g>
</svg>
