<svg preserveAspectRatio="none" width="100%" height="100%" overflow="visible" style="display: block;" viewBox="0 0 22.0005 37.9393" fill="none" xmlns="http://www.w3.org/2000/svg">
<path id="Vector 2" d="M8.85656 36.9392C9.48643 29.85 10.7462 15.6564 11.2934 8.34818C11.8406 1.03999 11.6371 1.04741 11.4156 1.09242C9.00759 1.58162 5.50857 4.08572 3.61235 4.86611C2.77718 5.20982 1.58415 5.92642 1.08174 6.2207C0.363442 6.64143 4.57995 5.25148 5.9 4.87824C7.11691 4.53415 9.02692 3.87667 10.5291 3.32255C11.797 2.85482 12.2765 1.67338 12.4157 1.03998C12.4701 0.792765 12.3925 1.75611 12.6939 2.26135C13.5058 3.62252 15.2636 4.55407 18.1459 6.12975C19.5539 6.89948 20.3064 7.5388 20.3992 7.56033C23.5789 8.2973 13.1472 3.27519 12.1935 2.7716C11.9894 2.62971 11.8247 2.47878 11.68 2.31802C11.5353 2.15725 11.4155 1.99123 11.02 1.31707" stroke="var(--stroke-0, black)" stroke-width="2" stroke-linecap="round" stroke-linejoin="round"/>
</svg>
