<svg preserveAspectRatio="none" width="100%" height="100%" overflow="visible" style="display: block;" viewBox="0 0 128.504 120" fill="none" xmlns="http://www.w3.org/2000/svg">
<g id="Algae Cooking Club" clip-path="url(#clip0_26_1129)">
<path id="Vector" d="M15.8513 82.6517C16.2151 82.6517 16.6346 82.6517 17.09 82.6148C17.965 82.56 18.6576 81.7209 18.6576 80.7354V73.3276C18.6576 72.1786 17.7458 71.3575 16.7442 71.4671C16.525 71.486 16.2888 71.5039 16.0696 71.5039C13.7187 71.5039 11.3319 69.9534 11.3319 66.0671C11.3319 62.1798 13.7187 60.6293 16.0696 60.6293C18.4204 60.6293 16.525 60.6293 16.7442 60.6661C16.9266 60.685 17.09 60.6661 17.2545 60.6293C17.046 61.7056 16.9422 62.7995 16.9445 63.8957C16.9445 71.4671 21.445 76.3937 27.0397 76.3937C32.6334 76.3937 33.0897 74.605 34.6932 71.5398C35.8592 80.6816 38.8478 86.246 42.6208 86.246C46.3927 86.246 49.0894 80.845 50.2195 72.0151V85.2794C50.2195 86.5559 51.3127 87.5962 52.6611 87.5962H58.0545C59.4037 87.5962 60.497 86.5568 60.497 85.2794V66.4318C60.497 65.7751 60.8797 65.4463 61.3899 65.4463C61.9001 65.4463 62.2828 65.7931 62.2828 66.4318V81.977C62.2828 83.2535 63.376 84.2939 64.7244 84.2939H72.7058V90.6614C72.707 91.2847 72.9551 91.8821 73.3956 92.323C73.8362 92.7639 74.4334 93.0124 75.0567 93.0142H80.159C81.4535 93.0142 82.5099 91.9568 82.5099 90.6614V53.7694C82.5089 53.146 82.261 52.5483 81.8204 52.1072C81.3798 51.6661 80.7825 51.4175 80.159 51.4158H75.0567C74.4334 51.4175 73.8362 51.666 73.3956 52.1069C72.9551 52.5478 72.707 53.1452 72.7058 53.7685V74.7694C72.7058 75.6085 72.2145 76.0469 71.5578 76.0469C70.902 76.0469 70.4097 75.6085 70.4097 74.7694V65.5748C70.4097 64.2425 70.1546 62.9102 69.6812 61.6526L68.1685 57.6746C68.135 57.5872 68.1284 57.4918 68.1496 57.4006L70.9748 41.6372C71.2299 40.2321 70.0819 38.9367 68.5511 38.9367H65.9631C64.7423 38.9367 63.7039 39.7757 63.5395 40.9257L61.1905 56.5786C61.1681 56.7071 61.1009 56.8235 61.0007 56.9071C60.9005 56.9907 60.7739 57.036 60.6434 57.035C60.3694 57.035 60.0784 56.7987 60.0784 56.5058V41.2167C60.0784 39.9392 58.9852 38.9178 57.6368 38.8989H52.6072C51.2589 38.8989 50.1836 39.9392 50.1836 41.2167V53.0211C49.0724 44.1902 46.32 38.8082 42.5848 38.8082C38.8488 38.8082 35.3499 45.3033 34.4022 55.7575C32.7808 52.9663 30.2116 51.3609 27.0037 51.3609C23.7968 51.3609 20.4255 53.2951 18.6226 56.5786V51.343C18.6226 50.3575 17.9291 49.5364 17.0541 49.4627C16.5987 49.4268 16.1801 49.4268 15.8163 49.4268C7.06768 49.4268 0.90705 55.5572 0.90705 66.0123C0.90705 76.4665 7.06673 82.5969 15.8135 82.5969M42.856 55.9039C43.9493 55.9039 44.7146 58.166 44.7146 61.5052C44.7146 64.8444 43.9493 67.0517 42.856 67.0517C41.7628 67.0517 40.7603 64.7896 40.7603 61.5052C40.7603 58.2208 41.7628 55.9039 42.856 55.9039ZM26.9291 60.411C28.3322 60.411 29.2989 61.7972 29.2989 63.8409C29.2989 65.8838 28.3322 67.234 26.9291 67.234C25.5259 67.234 23.9225 65.8479 23.9225 63.8409C23.9225 61.834 25.5259 60.411 26.9291 60.411ZM127.411 63.8409H119.338C118.737 63.8409 118.226 64.4428 118.226 65.1912V69.8249C118.226 70.5732 118.719 71.1761 119.338 71.1761H120.249C120.85 71.1761 121.361 71.777 121.361 72.5254C121.361 73.3474 120.76 74.0031 120.103 73.8756C117.917 73.4381 116.659 71.8687 115.966 70.4268C115.131 68.659 114.976 66.6457 115.53 64.7707C117.096 59.589 122.654 60.1918 125.205 60.7569C125.88 60.9033 126.5 60.2646 126.5 59.4246V54.2268C126.5 53.0948 125.843 52.0913 124.95 51.8721C117.625 50.0844 110.883 52.2189 108.112 59.0617V51.5991C108.112 50.3216 107.184 49.2822 106.017 49.2822H102.828C101.68 49.2822 100.733 50.3216 100.733 51.5991V69.0964C100.733 69.4063 100.514 69.6624 100.223 69.6624C99.9307 69.6624 99.7663 69.4611 99.7304 69.1871L97.3974 41.5644C97.234 40.4513 96.359 39.6482 95.3386 39.6482H86.7552C85.6072 39.6482 84.6604 40.6876 84.6604 41.965V80.8091C84.6604 82.1235 85.6441 83.1638 86.8289 83.1269C86.9924 83.1269 90.0179 83.1269 90.1814 83.108C91.2935 83.0542 92.1864 82.0328 92.1864 80.7912V57.2362C92.1864 56.9254 92.4047 56.6702 92.6967 56.6702H93.0245C93.2796 56.6702 93.4979 56.8706 93.5348 57.1625L94.9927 81.2646C95.1382 82.4145 96.0132 83.2715 97.0516 83.2715H105.999C107.147 83.2715 108.094 82.2321 108.094 80.9546V75.0255C111.794 84.0935 122.746 82.6696 126.9 81.7578C127.829 81.5565 128.504 80.5531 128.504 79.3861V65.1912C128.504 64.4428 128.012 63.84 127.393 63.84" fill="var(--fill-0, black)"/>
<path id="Vector_2" d="M11.368 47.4746H17.3274C18.2382 47.4746 18.9856 46.7632 19.1132 45.7956C19.2228 44.829 19.9881 44.1175 20.899 44.1175H23.1034C24.0152 44.1175 24.7617 44.829 24.8892 45.7956C24.9989 46.7632 25.7642 47.4746 26.6751 47.4746H32.7979C33.91 47.4746 34.7661 46.3795 34.5658 45.1937L32.4889 35.5417H54.6294C55.2672 35.5417 55.7954 35.0495 55.7954 34.4476V34.2463C61.682 37.0195 69.207 36.035 72.7428 35.3046C72.943 35.2672 73.1345 35.1932 73.3078 35.0863C73.6905 35.4142 74.2367 35.6154 74.8385 35.6154H81.9998C83.093 35.6154 84.0039 34.9398 84.1503 34.046C84.2959 33.1521 85.2067 32.4775 86.3 32.4775H88.9607C90.054 32.4775 90.9648 33.1521 91.1113 34.046C91.2568 34.9398 92.1677 35.6145 93.2609 35.6145H100.569V45.3033C100.569 46.5987 101.479 47.657 102.592 47.657H116.623C117.734 47.657 119.666 46.5987 119.666 45.3033V42.6028C119.666 41.3083 118.755 40.2501 117.644 40.2501H111.284C110.646 40.2501 110.118 39.6472 110.118 38.8989V38.6069C110.118 37.8595 110.646 37.2567 111.284 37.2567H113.925C115.038 37.2567 115.948 36.1984 115.948 34.9039V32.605C115.948 31.3096 115.038 30.2513 113.925 30.2513H111.794C111.156 30.2513 110.628 29.6485 110.628 28.9002C110.628 28.1528 111.156 27.5509 111.794 27.5509H118.245C118.882 27.5509 119.411 26.948 119.411 26.1997V22.4787C119.411 21.1833 118.5 20.125 117.388 20.125H102.592C101.479 20.125 100.569 21.1833 100.569 22.4778V25.6904L97.7803 15.7096C96.997 12.1153 93.2429 9.50551 88.8332 9.50551H86.5003C82.0905 9.50551 78.3185 12.1512 77.5532 15.7644L74.7837 25.9994V16.1291C74.7837 15.2532 74.1639 14.5606 73.3985 14.5606H63.2845C62.5192 14.5606 61.9003 15.2712 61.9003 16.1291V21.4932C61.9003 22.3691 62.5192 23.0617 63.2845 23.0617H64.4326C65.1979 23.0617 65.8177 23.7742 65.8177 24.6312C65.8177 25.4891 65.0713 26.3461 64.2511 26.1997C61.4987 25.6895 59.9321 23.8828 59.0571 22.2047C58.0177 20.2346 57.8184 17.7893 58.511 15.6359C60.4603 9.61512 67.4212 10.3266 70.6291 10.9843C71.4852 11.1666 72.2505 10.4173 72.2505 9.43276V3.42992C72.2505 2.11654 71.4303 0.948662 70.3003 0.693544C57.1437 -2.26205 45.4451 4.06866 47.8688 22.5515C48.1598 24.7956 48.7617 26.657 49.5629 28.2435H44.6798C44.042 28.2435 43.5129 27.7521 43.5129 27.1493V12.3524C43.5129 11.7496 42.9847 11.2573 42.3289 11.2573C33.9648 11.2573 34.6026 11.3121 32.2518 11.349C31.614 11.349 31.1037 11.8413 31.1037 12.4431V29.0466L30.4659 26.091C29.8102 22.2227 26.694 19.4135 23.0307 19.4135H21.0993C17.437 19.4135 14.3018 22.2406 13.6641 26.1269L9.65681 45.2126C9.45555 46.3994 10.3126 47.4756 11.4237 47.4756M87.7229 19.9068C88.9985 19.9068 89.8915 20.9282 89.8915 22.4428C89.8915 23.9575 88.9985 24.9609 87.7229 24.9609C86.4474 24.9609 84.9705 23.9386 84.9705 22.4428C84.9705 20.9471 86.4474 19.9068 87.7229 19.9068ZM21.7919 30.5433C22.8483 30.5433 24.0691 31.6375 24.0691 33.2428C24.0691 34.8491 22.8483 35.9613 21.7919 35.9613C20.7346 35.9613 19.9872 34.8671 19.9872 33.2428C19.9872 31.6195 20.7166 30.5433 21.7919 30.5433ZM108.696 96.6822V96.5726C109.99 95.8063 110.992 94.0913 110.992 91.5184C110.992 88.9465 108.97 85.662 105.179 85.662H85.3891C84.7692 85.662 84.259 86.2639 84.259 87.0123V95.8611C83.958 95.6743 83.6117 95.5734 83.2574 95.5691H72.4149C71.23 95.5691 70.2644 96.6095 70.2644 97.8869V108.998C70.2644 109.946 69.5349 110.732 68.6609 110.732H67.0754C66.1825 110.732 65.4719 109.946 65.4719 108.998V92.0296C65.4719 90.7521 64.5242 89.7307 63.3393 89.7128C60.1503 89.7128 54.1919 89.6759 51.0209 89.6939C49.837 89.6939 48.8892 90.7342 48.8892 91.9937V104.345C43.9144 104.419 43.9324 104.564 43.9324 103.232V91.5912C43.9324 90.9902 43.5129 90.5159 42.9847 90.5159H36.0776C35.5674 90.5159 35.1308 91.0072 35.1308 91.5921V97.4854C34.9126 97.2661 34.6574 97.1386 34.3466 97.1386H28.6433C26.5116 97.1386 24.3252 95.9707 24.3252 93.0151C24.3252 90.0595 26.4937 88.8917 28.6433 88.8917H34.2011C34.8389 88.8917 35.3859 88.2898 35.4039 87.5235L35.6231 81.9222C35.659 81.1191 35.1129 80.4444 34.4382 80.4255H28.4609C20.4795 80.4255 14.8669 85.0781 14.8669 92.9972C14.8669 100.915 20.4795 105.568 28.4609 105.568H34.3834C34.6754 105.568 34.9305 105.44 35.1308 105.239V108.797C35.1308 109.399 35.5503 109.874 36.0785 109.874H49.3796C50.9103 115.694 55.8851 119.945 61.7897 119.945H72.5415C78.8278 119.945 84.0578 115.11 85.2058 108.706C85.5705 108.87 86.0259 108.962 86.5362 108.962H102.791C109.406 108.962 111.72 106.352 111.72 102.101C111.72 97.8501 110.572 97.4485 108.749 96.6095M99.9119 103.105C96.6681 103.105 95.9207 102.612 95.9207 101.754C95.9207 100.897 96.6681 100.039 99.9119 100.039C103.156 100.039 104.267 100.605 104.267 101.754C104.267 102.904 103.21 103.105 99.9119 103.105ZM99.9119 93.4895C96.6681 93.4895 95.9207 92.9972 95.9207 92.1392C95.9207 91.2822 96.6681 90.4243 99.9119 90.4243C103.156 90.4243 104.267 90.9902 104.267 92.1392C104.267 93.2891 103.21 93.4895 99.9119 93.4895Z" fill="var(--fill-0, black)"/>
<path id="Vector_3" d="M77.6986 38.1146C75.0019 38.1146 72.961 39.9213 72.961 43.4249V45.1389C72.961 48.6425 75.1115 50.4491 77.6986 50.4491C80.2867 50.4491 82.4372 48.6425 82.4372 45.1389V43.4239C82.4372 39.9213 80.2867 38.1146 77.6986 38.1146Z" fill="var(--fill-0, black)"/>
</g>
<defs>
<clipPath id="clip0_26_1129">
<rect width="128.504" height="120" fill="white"/>
</clipPath>
</defs>
</svg>
