<svg preserveAspectRatio="none" width="100%" height="100%" overflow="visible" style="display: block;" viewBox="0 0 240 14.6193" fill="none" xmlns="http://www.w3.org/2000/svg">
<g id="Anthropologie" clip-path="url(#clip0_26_1089)">
<path id="Vector" d="M4.60517 9.97552L3.27675 12.8994C4.16236 12.8994 4.51661 12.8994 4.87085 12.8994C5.13653 12.8994 5.40221 13.1574 5.40221 13.5013C5.40221 13.8453 5.13653 14.1033 4.87085 14.1033C4.51661 14.1033 4.33948 13.9313 2.65683 13.9313C0.97417 13.9313 0.797048 14.1033 0.531365 14.1033C0.265683 14.1033 0 13.9313 0 13.5013C0 13.1574 0.265683 12.8994 0.531365 12.8994C0.885609 12.8994 1.15129 12.8994 2.0369 12.8994L7.61624 0.429979C7.7048 0.171992 7.88192 0 8.1476 0C8.50184 0 8.59041 0.171992 8.67897 0.429979L14.1697 12.8994C15.2325 12.8994 15.4096 12.8994 15.6753 12.8994C15.941 12.8994 16.2066 13.1574 16.2066 13.5013C16.2066 13.8453 15.941 14.1033 15.6753 14.1033C15.321 14.1033 15.2325 13.9313 12.9299 13.9313C10.7159 13.9313 10.5387 14.1033 10.1845 14.1033C9.91882 14.1033 9.65314 13.9313 9.65314 13.5013C9.65314 13.1574 9.91882 12.8994 10.1845 12.8994C10.5387 12.8994 10.6273 12.8994 11.6015 12.8994L10.3616 10.0615H4.60517V9.97552ZM9.83026 8.85757L7.52768 3.43983L5.13653 8.85757H9.83026Z" fill="var(--fill-0, #010101)"/>
<path id="Vector_2" d="M24.1772 12.8994C25.5942 12.8994 25.7713 12.8994 26.1255 12.8994C26.3912 12.8994 26.6569 13.1574 26.6569 13.5013C26.6569 13.8453 26.3912 14.1033 26.1255 14.1033C25.7713 14.1033 25.6827 13.9313 23.6458 13.9313H23.5573C21.5203 13.9313 21.4318 14.1033 21.0775 14.1033C20.8119 14.1033 20.5462 13.9313 20.5462 13.5013C20.5462 13.1574 20.8119 12.8994 21.0775 12.8994C21.4318 12.8994 21.6089 12.8994 23.0259 12.8994V1.28994C21.6089 1.28994 21.4318 1.28994 21.0775 1.28994C20.8119 1.28994 20.5462 1.11794 20.5462 0.687965C20.5462 0.343982 20.8119 0.0859945 21.0775 0.0859945C21.4318 0.0859945 21.6089 0.257986 23.5573 0.257986H23.9115C24.2657 0.257986 24.62 0.257986 24.8857 0.257986C25.3285 0.257986 25.5056 0.429978 25.9484 1.11794L32.2362 9.80352V1.28994C30.8192 1.28994 30.6421 1.28994 30.2879 1.28994C30.0222 1.28994 29.7565 1.11794 29.7565 0.687965C29.7565 0.343982 30.0222 0.0859945 30.2879 0.0859945C30.6421 0.0859945 30.8192 0.257986 32.7676 0.257986H32.8561C34.893 0.257986 34.9816 0.0859945 35.3358 0.0859945C35.6015 0.0859945 35.8672 0.343982 35.8672 0.687965C35.8672 1.03195 35.6015 1.28994 35.3358 1.28994C34.9816 1.28994 34.8045 1.28994 33.3875 1.28994V13.5013C33.3875 14.1033 33.0333 14.2753 32.7676 14.2753C32.4133 14.2753 32.3248 14.1033 31.9705 13.8453L24.1772 2.83786V12.8994Z" fill="var(--fill-0, #010101)"/>
<path id="Vector_3" d="M52.6051 4.72977C52.2509 4.72977 51.9852 4.47178 51.9852 4.21379C51.9852 1.80591 51.4538 1.20394 49.5055 1.20394H48.0885V12.8134C49.7712 12.8134 49.9483 12.8134 50.3026 12.8134C50.5682 12.8134 50.8339 13.0714 50.8339 13.4153C50.8339 13.7593 50.5682 14.0173 50.3026 14.0173C49.9483 14.0173 49.7712 13.8453 46.9372 13.8453H46.7601C43.9262 13.8453 43.749 14.0173 43.3948 14.0173C43.1291 14.0173 42.8634 13.8453 42.8634 13.4153C42.8634 13.0714 43.1291 12.8134 43.3948 12.8134C43.749 12.8134 43.9262 12.8134 45.6088 12.8134V1.20394H44.1919C42.155 1.20394 41.6236 1.80591 41.6236 4.21379C41.6236 4.47178 41.4465 4.72977 41.0922 4.72977C40.738 4.72977 40.5609 4.47178 40.5609 4.21379C40.5609 3.86981 40.738 2.92386 40.738 1.54792V0.687965C40.738 0.343982 41.0037 0.0859945 41.2693 0.0859945C41.535 0.0859945 42.6863 0.257986 43.2177 0.257986H50.6568C51.1882 0.257986 52.2509 0.0859945 52.5166 0.0859945C52.7823 0.0859945 53.0479 0.343982 53.0479 0.687965V1.54792C52.9594 3.00985 53.1365 3.95581 53.1365 4.29979C53.1365 4.47178 52.9594 4.72977 52.6051 4.72977Z" fill="var(--fill-0, #010101)"/>
<path id="Vector_4" d="M63.8525 7.39564V12.8994C64.9152 12.8994 65.0923 12.8994 65.4465 12.8994C65.7122 12.8994 65.9779 13.1574 65.9779 13.5013C65.9779 13.8453 65.7122 14.1033 65.4465 14.1033C65.0923 14.1033 64.7381 13.9313 62.7012 13.9313H62.524C59.7786 13.9313 59.513 14.1033 59.1587 14.1033C58.893 14.1033 58.6274 13.9313 58.6274 13.5013C58.6274 13.1574 58.893 12.8994 59.1587 12.8994C59.513 12.8994 59.6901 12.8994 61.3727 12.8994V1.28994C59.6901 1.28994 59.513 1.28994 59.1587 1.28994C58.893 1.28994 58.6274 1.11794 58.6274 0.687965C58.6274 0.343982 58.893 0.0859945 59.1587 0.0859945C59.513 0.0859945 59.6901 0.257986 62.524 0.257986H62.7012C64.9152 0.257986 65.0923 0.0859945 65.4465 0.0859945C65.7122 0.0859945 65.9779 0.343982 65.9779 0.687965C65.9779 1.03195 65.7122 1.28994 65.4465 1.28994C65.0923 1.28994 64.7381 1.28994 63.8525 1.28994V6.1917H69.9632V1.28994C68.9004 1.28994 68.7233 1.28994 68.3691 1.28994C68.1034 1.28994 67.8377 1.11794 67.8377 0.687965C67.8377 0.343982 68.1034 0.0859945 68.3691 0.0859945C68.7233 0.0859945 68.9004 0.257986 71.1144 0.257986H71.2916C74.1255 0.257986 74.3026 0.0859945 74.6569 0.0859945C74.9226 0.0859945 75.1882 0.343982 75.1882 0.687965C75.1882 1.03195 74.9226 1.28994 74.6569 1.28994C74.3026 1.28994 74.1255 1.28994 72.4429 1.28994V12.8994C74.1255 12.8994 74.3026 12.8994 74.6569 12.8994C74.9226 12.8994 75.1882 13.1574 75.1882 13.5013C75.1882 13.8453 74.9226 14.1033 74.6569 14.1033C74.3026 14.1033 74.1255 13.9313 71.2916 13.9313H71.1144C68.9004 13.9313 68.6347 14.1033 68.3691 14.1033C68.1034 14.1033 67.8377 13.9313 67.8377 13.5013C67.8377 13.1574 68.1034 12.8994 68.3691 12.8994C68.7233 12.8994 68.989 12.8994 69.9632 12.8994V7.39564H63.8525Z" fill="var(--fill-0, #010101)"/>
<path id="Vector_5" d="M93.5204 10.3195C93.5204 11.6954 93.4318 11.8674 93.4318 12.5554C93.4318 13.0714 93.6089 13.4153 94.0517 13.4153C94.4945 13.4153 94.5831 13.1574 94.5831 12.7274C94.5831 12.4694 94.8488 12.2114 95.1145 12.2114C95.3802 12.2114 95.6458 12.4694 95.6458 12.7274C95.6458 13.7593 94.6717 14.2753 93.9632 14.2753C92.2805 14.2753 91.1292 13.5013 91.1292 10.3195C91.1292 8.08361 90.775 7.22365 88.2067 7.22365H86.8783V12.8994C88.561 12.8994 88.7381 12.8994 89.0923 12.8994C89.358 12.8994 89.6237 13.1574 89.6237 13.5013C89.6237 13.8453 89.358 14.1033 89.0923 14.1033C88.7381 14.1033 88.561 13.9313 85.727 13.9313H85.5499C82.8045 13.9313 82.5388 14.1033 82.1846 14.1033C81.9189 14.1033 81.6532 13.9313 81.6532 13.5013C81.6532 13.1574 81.9189 12.8994 82.1846 12.8994C82.5388 12.8994 82.7159 12.8994 84.3986 12.8994V1.28994C82.7159 1.28994 82.5388 1.28994 82.1846 1.28994C81.9189 1.28994 81.6532 1.11794 81.6532 0.687965C81.6532 0.343982 81.9189 0.0859945 82.1846 0.0859945C82.5388 0.0859945 82.7159 0.257986 85.3728 0.257986C86.0813 0.257986 87.3211 0.17199 88.2067 0.17199C91.9263 0.17199 93.5204 1.63392 93.5204 3.43983C93.5204 4.98776 91.9263 6.27769 90.2436 6.62168C92.4576 7.13765 93.5204 8.77157 93.5204 10.3195ZM87.8525 1.28994C87.5868 1.28994 86.8783 1.28994 86.8783 1.28994V6.36369H87.6754C89.8894 6.36369 91.0407 5.67572 91.0407 3.61182C91.0407 1.9779 90.2436 1.28994 87.8525 1.28994Z" fill="var(--fill-0, #010101)"/>
<path id="Vector_6" d="M107.07 14.1893C103.528 14.1893 100.428 11.3514 100.428 7.13765C100.428 2.92386 103.439 0 107.07 0C110.701 0 113.712 2.83786 113.712 7.13765C113.623 11.3514 110.612 14.1893 107.07 14.1893ZM107.07 1.11795C104.59 1.11795 103.262 2.57987 103.262 7.13765C103.262 11.6954 104.59 13.1574 107.07 13.1574C109.55 13.1574 110.878 11.6954 110.878 7.13765C110.878 2.57987 109.55 1.11795 107.07 1.11795Z" fill="var(--fill-0, #010101)"/>
<path id="Vector_7" d="M125.225 12.8994C126.908 12.8994 127.085 12.8994 127.439 12.8994C127.705 12.8994 127.97 13.1574 127.97 13.5013C127.97 13.8453 127.705 14.1033 127.439 14.1033C127.085 14.1033 126.908 13.9313 124.074 13.9313H123.897C121.151 13.9313 120.886 14.1033 120.531 14.1033C120.266 14.1033 120 13.9313 120 13.5013C120 13.1574 120.266 12.8994 120.531 12.8994C120.886 12.8994 121.063 12.8994 122.745 12.8994V1.28994C121.063 1.28994 120.886 1.28994 120.531 1.28994C120.266 1.28994 120 1.11794 120 0.687965C120 0.257986 120.266 0.0859945 120.531 0.0859945C120.886 0.0859945 121.063 0.257986 123.542 0.257986C124.694 0.257986 125.225 0.257986 126.465 0.257986C130.273 0.257986 132.31 1.9779 132.31 4.29979C132.31 6.70767 130.273 8.42759 126.465 8.42759C126.022 8.42759 125.579 8.42759 125.137 8.42759L125.225 12.8994ZM125.225 7.56763C125.225 7.56763 126.111 7.56763 126.554 7.56763C129.033 7.56763 129.919 6.70767 129.919 4.38579C129.919 2.14989 129.033 1.28994 126.554 1.28994C126.111 1.28994 125.225 1.28994 125.225 1.28994V7.56763Z" fill="var(--fill-0, #010101)"/>
<path id="Vector_8" d="M144.088 14.1893C140.546 14.1893 137.446 11.3514 137.446 7.13765C137.446 2.92386 140.457 0 144.088 0C147.719 0 150.73 2.83786 150.73 7.13765C150.73 11.3514 147.719 14.1893 144.088 14.1893ZM144.088 1.11795C141.609 1.11795 140.192 2.57987 140.192 7.13765C140.192 11.6954 141.52 13.1574 144.088 13.1574C146.657 13.1574 147.897 11.6954 147.897 7.13765C147.897 2.57987 146.568 1.11795 144.088 1.11795Z" fill="var(--fill-0, #010101)"/>
<path id="Vector_9" d="M165.786 12.9854C167.734 12.9854 168.266 12.3834 168.266 9.97551C168.266 9.71753 168.443 9.45954 168.886 9.45954C169.24 9.45954 169.417 9.71753 169.417 9.97551C169.417 10.3195 169.24 11.1795 169.24 12.5554V13.5013C169.24 13.8453 168.974 14.1033 168.709 14.1033C168.443 14.1033 167.292 13.9313 166.76 13.9313L160.915 13.8453C158.17 13.8453 157.904 14.0173 157.55 14.0173C157.284 14.0173 157.018 13.8453 157.018 13.4153C157.018 13.0714 157.284 12.8134 157.55 12.8134C157.904 12.8134 158.081 12.8134 159.764 12.8134V1.28994C158.081 1.28994 157.904 1.28994 157.55 1.28994C157.284 1.28994 157.018 1.11794 157.018 0.687965C157.018 0.257986 157.284 0.0859945 157.55 0.0859945C157.904 0.0859945 158.081 0.257986 160.915 0.257986H161.092C163.838 0.257986 164.103 0.0859945 164.458 0.0859945C164.723 0.0859945 164.989 0.343982 164.989 0.687965C164.989 1.03195 164.723 1.28994 164.458 1.28994C164.103 1.28994 163.926 1.28994 162.244 1.28994V12.8994H165.786V12.9854Z" fill="var(--fill-0, #010101)"/>
<path id="Vector_10" d="M180.93 14.1893C177.388 14.1893 174.288 11.3514 174.288 7.13765C174.288 2.92386 177.299 0 180.93 0C184.561 0 187.572 2.83786 187.572 7.13765C187.572 11.3514 184.561 14.1893 180.93 14.1893ZM180.93 1.11795C178.45 1.11795 177.033 2.57987 177.033 7.13765C177.033 11.6954 178.362 13.1574 180.93 13.1574C183.41 13.1574 184.738 11.6954 184.738 7.13765C184.827 2.57987 183.498 1.11795 180.93 1.11795Z" fill="var(--fill-0, #010101)"/>
<path id="Vector_11" d="M194.037 7.13765C194.037 2.92386 197.048 0 200.679 0C202.627 0 203.601 0.601971 204.399 1.28994C204.576 1.11795 204.664 1.03195 204.664 0.773962C204.664 0.515975 204.664 0.171992 205.196 0.171992C205.638 0.171992 205.727 0.429979 205.727 0.773962V4.90176C205.727 5.15975 205.727 5.50373 205.196 5.50373C204.664 5.50373 204.664 5.15975 204.664 4.90176C204.664 2.83786 202.982 1.11795 200.856 1.11795C198.199 1.11795 196.782 2.75187 196.782 7.13765C196.782 11.5234 198.199 13.1574 200.856 13.1574C202.362 13.1574 203.779 12.5554 203.779 9.37354C202.627 9.37354 202.45 9.37354 202.096 9.37354C201.83 9.37354 201.565 9.11556 201.565 8.77157C201.565 8.42759 201.83 8.1696 202.096 8.1696C202.45 8.1696 202.539 8.34159 204.841 8.34159H205.018C207.41 8.34159 207.498 8.1696 207.764 8.1696C208.03 8.1696 208.295 8.42759 208.295 8.77157C208.295 9.11556 208.03 9.37354 207.764 9.37354C207.41 9.37354 207.233 9.37354 206.17 9.37354C206.17 10.4055 205.816 14.1893 200.59 14.1893C197.048 14.1893 194.037 11.3514 194.037 7.13765Z" fill="var(--fill-0, #010101)"/>
<path id="Vector_12" d="M220.871 12.8134C221.137 12.8134 221.402 13.0714 221.402 13.4153C221.402 13.7593 221.137 14.0173 220.871 14.0173C220.517 14.0173 220.34 13.8453 217.506 13.8453H217.328C214.583 13.8453 214.317 14.0173 213.963 14.0173C213.697 14.0173 213.432 13.8453 213.432 13.4153C213.432 13.0714 213.697 12.8134 213.963 12.8134C214.317 12.8134 214.494 12.8134 216.177 12.8134V1.28994C214.494 1.28994 214.317 1.28994 213.963 1.28994C213.697 1.28994 213.432 1.11794 213.432 0.687965C213.432 0.257986 213.697 0.0859945 213.963 0.0859945C214.317 0.0859945 214.494 0.257986 217.328 0.257986H217.506C220.251 0.257986 220.517 0.0859945 220.871 0.0859945C221.137 0.0859945 221.402 0.343982 221.402 0.687965C221.402 1.03195 221.137 1.28994 220.871 1.28994C220.517 1.28994 220.339 1.28994 218.657 1.28994V12.8994C220.339 12.8994 220.517 12.8134 220.871 12.8134Z" fill="var(--fill-0, #010101)"/>
<path id="Vector_13" d="M234.332 6.27769C235.129 6.27769 235.838 5.67572 235.838 4.64377C235.838 4.38579 235.926 4.0418 236.281 4.0418C236.635 4.0418 236.635 4.29979 236.635 4.64377C236.635 4.98776 236.546 5.41774 236.546 6.62168V6.96566C236.546 8.1696 236.635 8.59958 236.635 8.94356C236.635 9.20155 236.635 9.54554 236.281 9.54554C235.926 9.54554 235.838 9.28755 235.838 8.94356C235.838 7.99761 235.129 7.30964 234.332 7.30964H233.181V12.9854H236.369C238.406 12.9854 238.849 12.3834 238.849 9.97551C238.849 9.71753 239.026 9.45954 239.469 9.45954C239.823 9.45954 240 9.71753 240 9.97551C240 10.3195 239.823 11.1795 239.823 12.5554V13.5013C239.823 13.8453 239.557 14.1033 239.292 14.1033C239.026 14.1033 237.875 13.9313 237.343 13.9313L231.764 13.8453C229.019 13.8453 228.753 14.0173 228.399 14.0173C228.133 14.0173 227.867 13.8453 227.867 13.4153C227.867 13.0714 228.133 12.8134 228.399 12.8134C228.753 12.8134 228.93 12.8134 230.613 12.8134V1.28994C228.93 1.28994 228.753 1.28994 228.399 1.28994C228.133 1.28994 227.867 1.11794 227.867 0.687965C227.867 0.343982 228.133 0.0859945 228.399 0.0859945C228.753 0.0859945 228.93 0.257986 231.764 0.257986H236.723C237.255 0.257986 238.317 0.0859945 238.672 0.0859945C238.937 0.0859945 239.203 0.343982 239.203 0.687965V1.54792C239.203 2.92386 239.38 3.86981 239.38 4.21379C239.38 4.47178 239.203 4.72977 238.849 4.72977C238.495 4.72977 238.229 4.47178 238.229 4.21379C238.229 1.80591 237.697 1.20394 235.749 1.20394H233.092V6.27769H234.332Z" fill="var(--fill-0, #010101)"/>
</g>
<defs>
<clipPath id="clip0_26_1089">
<rect width="240" height="14.6193" fill="white"/>
</clipPath>
</defs>
</svg>
