<svg preserveAspectRatio="none" width="100%" height="100%" overflow="visible" style="display: block;" viewBox="0 0 89.8073 91.9649" fill="none" xmlns="http://www.w3.org/2000/svg">
<g id="Group">
<path id="Vector" d="M89.8062 45.6317C89.9831 71.2009 69.1415 91.9649 43.4169 91.9649H0V59.5212C0 59.4159 0.141538 59.4159 0.176923 59.4861C5.20154 69.6576 15.7462 76.6374 27.9538 76.6374C44.9738 76.6374 58.7738 63.0286 58.88 46.1929C58.9862 29.2871 45.0092 15.2924 27.9538 15.2924C15.7462 15.2924 5.20154 22.2722 0.176923 32.4438C0.141538 32.5841 0 32.549 0 32.4438V0H42.8154C68.4338 0 89.6292 20.273 89.8062 45.6317ZM18.2231 25.5692C6.54615 25.5692 0 33.6012 0 37.0736C0 37.1788 0.0353846 37.284 0.0707692 37.3191C0.141538 37.3893 0.247692 37.1788 0.566154 36.8631C2.40615 35.0393 5.41385 32.3736 10.7215 32.3736C17.94 32.3736 24.5215 38.1609 24.5215 46.0175C24.5215 53.8391 17.94 59.6615 10.7215 59.6615C5.41385 59.6615 2.40615 56.9958 0.566154 55.1719C0.247692 54.8563 0.141538 54.6809 0.0707692 54.716C0.0353846 54.716 0 54.8212 0 54.9264C0 58.3637 6.54615 66.4308 18.2231 66.4308C27.7062 66.4308 38.2508 58.3286 38.2508 45.9825C38.2508 33.6363 27.7062 25.5692 18.2231 25.5692Z" fill="var(--fill-0, black)"/>
</g>
</svg>
