<svg preserveAspectRatio="none" width="100%" height="100%" overflow="visible" style="display: block;" viewBox="0 0 240 24.0353" fill="none" xmlns="http://www.w3.org/2000/svg">
<g id="Group">
<path id="Vector" d="M12.3701 0V3.03084H2.9956V9.37445H9.76212V12.3701H2.9956V24H0V0H12.3701Z" fill="var(--fill-0, #2D2D2D)"/>
<path id="Vector_2" d="M33.0926 24L27.9473 14.0617H25.1279V24H22.1323V0H28.1234C32.0002 0 35.1014 3.1718 35.1014 7.01322C35.1014 9.8326 33.4098 12.2995 30.9781 13.3921L36.4054 24H33.0574H33.0926ZM25.1632 11.0308H28.1587C30.3437 11.0308 32.1763 9.23348 32.1763 7.01322C32.1763 4.79296 30.379 2.9956 28.1587 2.9956H25.1632V10.9956V11.0308Z" fill="var(--fill-0, #2D2D2D)"/>
<path id="Vector_3" d="M58.4318 0V3.03084H49.0574V9.37445H55.8238V12.3701H49.0574V21.0044H58.4318V24.0353H46.0617V0H58.4318Z" fill="var(--fill-0, #2D2D2D)"/>
<path id="Vector_4" d="M80.5992 0V3.03084H71.2248V9.37445H77.9913V12.3701H71.2248V21.0044H80.5992V24.0353H68.2292V0H80.5992Z" fill="var(--fill-0, #2D2D2D)"/>
<path id="Vector_5" d="M111.33 0C115.207 0 118.344 3.1718 118.344 7.01322C118.344 10.8546 115.172 14.0264 111.33 14.0264H108.37V23.9647H105.339V0H111.33ZM108.37 11.0308H111.33C113.515 11.0308 115.348 9.23348 115.348 7.01322C115.348 4.79296 113.551 2.9956 111.33 2.9956H108.37V10.9956V11.0308Z" fill="var(--fill-0, #2D2D2D)"/>
<path id="Vector_6" d="M140.37 0V3.03084H130.996V9.37445H137.762V12.3701H130.996V21.0044H140.37V24.0353H128V0H140.37Z" fill="var(--fill-0, #2D2D2D)"/>
<path id="Vector_7" d="M173.462 12.0176C173.462 18.6079 168.071 24 161.48 24C154.89 24 149.462 18.6079 149.462 12.0176C149.462 5.42731 154.855 0 161.48 0C168.106 0 173.462 5.39207 173.462 12.0176ZM152.458 12.0176C152.458 16.9868 156.475 20.9692 161.444 20.9692C166.414 20.9692 170.431 16.9516 170.431 12.0176C170.431 7.0837 166.414 3.03084 161.444 3.03084C156.475 3.03084 152.458 7.04846 152.458 12.0176Z" fill="var(--fill-0, #2D2D2D)"/>
<path id="Vector_8" d="M189.251 0C193.128 0 196.265 3.1718 196.265 7.01322C196.265 10.8546 193.092 14.0264 189.251 14.0264H186.29V23.9647H183.26V0H189.251ZM186.29 11.0308H189.251C191.436 11.0308 193.268 9.23348 193.268 7.01322C193.268 4.79296 191.471 2.9956 189.251 2.9956H186.29V10.9956V11.0308Z" fill="var(--fill-0, #2D2D2D)"/>
<path id="Vector_9" d="M208.846 0V20.9692H217.938V24H205.885V0H208.882H208.846Z" fill="var(--fill-0, #2D2D2D)"/>
<path id="Vector_10" d="M240 0V3.03084H230.625V9.37445H237.392V12.3701H230.625V21.0044H240V24.0353H227.63V0H240Z" fill="var(--fill-0, #2D2D2D)"/>
</g>
</svg>
