<svg preserveAspectRatio="none" width="100%" height="100%" overflow="visible" style="display: block;" viewBox="0 0 240 44.557" fill="none" xmlns="http://www.w3.org/2000/svg">
<g id="Living Proof">
<path id="Vector" d="M236.976 6.43693C235.611 6.43693 233.911 5.71994 233.911 3.51022C233.911 1.62281 235.263 0.538307 236.96 0.538307C238.436 0.538307 240 1.35365 240 3.51022C240 5.38295 238.676 6.43693 236.976 6.43693ZM236.976 0.81426C235.524 0.81426 234.284 1.59345 234.284 3.46391C234.284 5.78897 236.152 6.16443 237.05 6.16443C238.523 6.16443 239.647 5.2371 239.647 3.51139C239.647 1.64207 238.322 0.81426 236.976 0.81426ZM238.5 5.17492C238.202 5.17492 238.051 5.11722 237.888 4.96682C237.888 4.96682 237.296 4.36179 236.914 3.74773C236.914 3.74773 236.602 3.73529 236.407 3.70929V4.55744C236.407 4.89783 236.648 4.9363 236.861 4.9363V5.17492C236.61 5.17492 236.563 5.14772 236.145 5.14772C235.723 5.14772 235.682 5.16132 235.428 5.16132V4.93285C235.645 4.93285 235.892 4.8944 235.892 4.55288V2.42463C235.892 2.0718 235.568 2.04466 235.364 2.04466V1.81281C235.507 1.81281 235.743 1.82413 236.158 1.82413C236.575 1.82413 236.611 1.81282 236.856 1.80377C237.702 1.78229 238.172 2.11027 238.172 2.69493C238.172 3.21739 237.681 3.51023 237.452 3.62784C237.452 3.62784 238.5 4.96797 238.798 4.89785V5.13647C238.798 5.13647 238.707 5.17492 238.5 5.17492ZM236.856 2.07179C236.667 2.07179 236.407 2.09781 236.407 2.09781V3.47067C236.564 3.50573 236.765 3.52382 236.968 3.52382C237.358 3.52382 237.606 3.17439 237.606 2.74579C237.606 2.31833 237.406 2.07179 236.856 2.07179Z" fill="var(--fill-0, black)"/>
<path id="Vector_2" d="M29.8041 5.28688C29.8041 6.65749 28.6279 7.76687 27.1804 7.76687C25.734 7.76687 24.5387 6.65636 24.5387 5.28688C24.5387 3.92531 25.734 2.81814 27.1804 2.81814C28.6279 2.81814 29.8041 3.92531 29.8041 5.28688Z" fill="var(--fill-0, black)"/>
<path id="Vector_3" d="M229.773 31.2562C229.773 32.6381 228.608 33.7282 227.162 33.7282C225.692 33.7282 224.519 32.6392 224.519 31.2562C224.519 29.8935 225.691 28.775 227.162 28.775C228.608 28.775 229.773 29.8935 229.773 31.2562Z" fill="var(--fill-0, black)"/>
<path id="Vector_4" d="M32.5691 33.3166V31.6576C30.9949 31.6576 29.3314 31.4834 29.3314 28.8915V12.5956H27.8183C26.2147 13.1305 23.7302 13.7231 21.9897 13.8046V15.4557C23.5888 15.9408 23.9507 15.9871 25.6787 16.3592V28.8915C25.6787 31.445 24.2018 31.6576 22.4252 31.6576V33.3166C23.4814 33.3166 25.3349 33.2216 27.5107 33.2216C29.6774 33.2216 31.2753 33.3166 32.5691 33.3166Z" fill="var(--fill-0, black)"/>
<path id="Vector_5" d="M64.626 5.28688C64.626 6.65749 63.4318 7.76687 61.9775 7.76687C60.5436 7.76687 59.3686 6.65636 59.3686 5.28688C59.3686 3.92531 60.5436 2.81814 61.9775 2.81814C63.4318 2.81814 64.626 3.92531 64.626 5.28688Z" fill="var(--fill-0, black)"/>
<path id="Vector_6" d="M67.3988 33.3166V31.6576C65.7862 31.6576 64.1408 31.4834 64.1408 28.8915V12.5956H62.6119C61.0049 13.1305 58.5419 13.7231 56.8038 13.8046V15.4557C58.4073 15.9408 58.7533 15.9871 60.4903 16.3592V28.8915C60.4903 31.445 59.0123 31.6576 57.221 31.6576V33.3166C58.2727 33.3166 60.1444 33.2216 62.3122 33.2216C64.4903 33.2216 66.0983 33.3166 67.3988 33.3166Z" fill="var(--fill-0, black)"/>
<path id="Vector_7" d="M228.395 1.87273C227.018 0.693229 225.283 0 222.96 0C218.898 0 214.216 3.12915 214.216 10.5974V13.8046H210.905V16.0266H214.216V28.8915C214.216 31.4484 212.738 31.6576 210.937 31.6576V33.3166C212.236 33.3166 214.034 33.2216 216.202 33.2216C218.379 33.2216 220.118 33.3166 221.417 33.3166V31.6576C219.675 31.6576 217.858 31.4834 217.858 28.8915V16.0266H223.405V13.8046H217.858V9.90643C217.858 5.42818 218.591 2.95611 221.897 2.95611C224.012 2.95611 225.322 3.82915 226.28 4.47827L228.395 1.87273Z" fill="var(--fill-0, black)"/>
<path id="Vector_8" d="M111.342 36.9173C111.342 39.3124 108.775 41.2994 104.704 41.2994C100.848 41.2994 97.6333 39.8179 97.6333 37.0847C97.6333 35.5625 99.2743 34.1274 100.329 33.7045C102.274 33.9205 103.349 34.0516 105.09 34.176C108.603 34.4927 111.342 34.6058 111.342 36.9173ZM109.043 19.8875C109.043 22.5021 107.705 25.0919 104.094 25.0919C101.394 25.0919 99.3692 23.1523 99.3692 19.7971C99.3692 17.2424 100.878 14.6403 104.128 14.6403C106.824 14.6403 109.043 16.4982 109.043 19.8875ZM115.09 15.8027V13.8046H109.008C107.881 13.2866 106.793 12.5956 104.266 12.5956C99.6203 12.5956 95.6261 15.5993 95.6261 19.9294C95.6261 24.1883 99.004 26.0157 99.7187 26.3617C98.7981 26.8333 95.8986 28.5749 95.8986 30.269C95.8986 31.8782 97.3246 32.7036 98.6296 33.1775C97.2895 33.9216 94.5936 35.6541 94.5936 38.5209C94.5936 41.4193 98.1117 43.8202 103.479 43.8202C110.096 43.8202 114.262 39.2513 114.262 35.3951C114.262 31.4439 110.141 31.3534 106.178 30.9995C102.588 30.6975 99.3681 30.5798 99.3681 29.0928C99.3681 27.9653 100.672 27.1443 101.319 26.8876C101.319 26.8876 101.838 27.1918 104.226 27.1918C108.23 27.1918 112.66 24.7107 112.66 19.8864C112.66 17.5918 111.816 16.7222 111.34 15.8017L115.09 15.8027Z" fill="var(--fill-0, black)"/>
<path id="Vector_9" d="M19.8886 33.3166C19.8886 33.3166 19.8129 31.2765 19.8129 29.9613C19.8129 28.6721 19.8886 26.6173 19.8886 26.6173H18.2466C18.2466 30.1875 17.1135 31.0945 12.8512 31.0945C8.33113 31.0945 7.08036 31.1374 7.08036 28.0524V7.6888C7.08036 5.2088 9.02093 5.3004 10.3463 5.3004V3.64938C9.02093 3.64938 7.34503 3.7398 5.16698 3.7398C3.00137 3.7398 1.30276 3.64938 0 3.64938V5.3004C1.30276 5.3004 3.25125 5.2088 3.25125 7.6888V29.2748C3.25125 31.7559 1.30276 31.6576 0 31.6576V33.3166C1.30276 33.3166 3.13931 33.2216 5.30041 33.2216C7.47507 33.2216 14.4164 33.2601 19.8886 33.3166Z" fill="var(--fill-0, black)"/>
<path id="Vector_10" d="M54.9884 15.0632V13.4246C53.688 13.4246 52.9314 13.5071 50.7443 13.5071C48.5651 13.5071 47.7803 13.4246 46.4786 13.4246V15.0632C48.2598 15.0632 49.0978 15.8492 49.0978 17.0343C49.0978 17.4234 48.9643 17.8463 48.7947 18.3326L44.5291 29.2748L39.638 17.4618C38.9618 15.9363 39.7103 15.0632 42.4844 15.0632V13.4246C41.1884 13.4246 39.5747 13.5422 37.4057 13.5071C35.231 13.5071 33.6275 13.5071 32.3225 13.4246V15.0632C33.7225 15.0632 34.6825 15.2023 35.231 16.5424L42.1723 33.3076H45.1759L51.0156 18.3643C52.0493 15.6784 53.4414 15.0247 54.9884 15.0632Z" fill="var(--fill-0, black)"/>
<path id="Vector_11" d="M93.5435 33.3166V31.6576C91.932 31.6576 90.2911 31.4834 90.2911 28.8915V19.1581C90.2911 13.5422 85.7179 12.5956 83.7716 12.5956C79.428 12.5956 77.2714 15.2023 76.8281 15.7169V12.5956H75.3953C73.7883 13.1305 71.2982 13.7231 69.5827 13.8046V15.4557C71.1987 15.9408 71.5414 15.9871 73.276 16.3592V28.8915C73.276 31.445 71.7811 31.6576 70.0033 31.6576V33.3166C71.0596 33.3166 72.9142 33.2216 75.0832 33.2216C77.2715 33.2216 78.8716 33.3166 80.1755 33.3166V31.6576C78.5731 31.6576 76.9017 31.4834 76.9017 28.8915V17.5059C77.484 16.668 79.4686 15.5076 81.7203 15.5076C84.6492 15.5076 86.6418 17.1995 86.6418 19.9294V28.8915C86.6418 31.445 85.1626 31.6576 83.3838 31.6576V33.3166C84.4152 33.3166 86.2912 33.2216 88.4479 33.2216C90.6305 33.2216 92.234 33.3166 93.5435 33.3166Z" fill="var(--fill-0, black)"/>
<path id="Vector_12" d="M142.92 23.4588C142.92 29.2409 140.169 31.5322 136.62 31.5322C133.536 31.5322 131.969 29.9624 131.969 29.9624V17.1214C132.273 16.7278 133.705 15.3403 136.62 15.3403C140.23 15.3414 142.92 18.2489 142.92 23.4588ZM146.899 22.4172C146.899 17.4629 144.159 12.5968 138.32 12.5968C134.147 12.5968 132.312 14.7714 131.893 15.294V12.5968H130.456C128.844 13.1317 126.361 13.7424 124.622 13.8057V15.4658C126.232 15.9554 126.591 15.9939 128.315 16.3863V39.0524C128.315 41.6115 126.845 41.823 125.061 41.823V43.4741C126.36 43.4741 128.141 43.3961 130.325 43.3961C132.49 43.3961 134.226 43.4741 135.515 43.4741V41.823C133.802 41.823 131.969 41.6545 131.969 39.0524V32.8269C131.969 32.8269 133.231 33.6536 136.531 33.6536C141.661 33.6547 146.899 29.7125 146.899 22.4172Z" fill="var(--fill-0, black)"/>
<path id="Vector_13" d="M164.013 16.6385V12.8603C163.509 12.6793 162.948 12.5878 162.372 12.5878C159.505 12.5878 157.115 15.0643 156.6 16.4225V12.5878H155.172C153.561 13.1204 151.087 13.7175 149.356 13.8069V15.4578C150.96 15.943 151.305 15.9894 153.045 16.3614V28.8938C153.045 31.4473 151.583 31.6599 149.779 31.6599V33.3188C151.087 33.3188 152.871 33.2159 155.029 33.2159C157.213 33.2159 158.953 33.3188 160.249 33.3188V31.6599C158.509 31.6599 156.701 31.4858 156.701 28.8938V18.1969C157.772 16.8477 159.328 16.3297 161.513 16.3297C162.583 16.3275 163.23 16.4982 164.013 16.6385Z" fill="var(--fill-0, black)"/>
<path id="Vector_14" d="M181.383 23.0528C181.383 26.9633 180.191 31.6135 175.342 31.6135C170.602 31.6135 169.121 27.1748 169.121 23.0912C169.121 19.4023 170.422 14.6618 175.293 14.6618C180.092 14.6629 181.383 19.4465 181.383 23.0528ZM185.449 23.0042C185.449 16.8341 181.861 12.5878 175.376 12.5878C170.114 12.5878 164.998 16.8342 164.998 23.3129C164.998 29.9557 169.122 33.6943 175.07 33.6943C180.6 33.6932 185.449 29.6956 185.449 23.0042Z" fill="var(--fill-0, black)"/>
<path id="Vector_15" d="M204.624 23.0426C204.624 26.9644 203.46 31.6056 198.593 31.6056C193.867 31.6056 192.381 27.1692 192.381 23.0924C192.381 19.4035 193.691 14.6629 198.551 14.6629C203.328 14.6629 204.624 19.4465 204.624 23.0426ZM208.704 23.0041C208.704 16.8341 205.105 12.5844 198.649 12.5844C193.382 12.5844 188.265 16.8341 188.265 23.3061C188.265 29.9556 192.381 33.6943 198.337 33.6943C203.839 33.6932 208.704 29.6956 208.704 23.0041Z" fill="var(--fill-0, black)"/>
</g>
</svg>
