<svg preserveAspectRatio="none" width="100%" height="100%" overflow="visible" style="display: block;" viewBox="0 0 194 47" fill="none" xmlns="http://www.w3.org/2000/svg">
<g id="Group">
<g id="Group_2">
<path id="Vector" d="M24.9937 5.63104C29.1323 5.63104 32.2687 6.84683 34.4027 9.31042C36.5367 11.742 37.5713 15.3574 37.5713 20.0926V37.1777H24.7997V22.7801C24.7997 18.1729 22.892 15.8693 19.0443 15.8693C14.841 15.8693 12.7393 18.2369 12.7393 23.0041V37.2097H0V6.97481H12.6423V14.5255C13.7093 11.486 15.2613 9.24643 17.266 7.80667C19.2383 6.36692 21.825 5.63104 24.9937 5.63104Z" fill="var(--fill-0, black)"/>
<path id="Vector_2" d="M69.2257 6.97481H82.0297V37.1777H69.2257V30.9387C67.124 35.8339 63.1147 38.2655 57.1654 38.2655C53.0914 38.2655 49.9874 37.1457 47.8534 34.8741C45.7194 32.6344 44.6524 29.403 44.6524 25.1797V6.94282H57.4564V22.0762C57.4564 24.3798 57.909 26.0756 58.8467 27.1634C59.752 28.2512 61.207 28.7951 63.147 28.7951C67.221 28.7951 69.258 26.4595 69.258 21.8203V6.97481H69.2257Z" fill="var(--fill-0, black)"/>
<path id="Vector_3" d="M107.767 38.2335C101.462 38.2335 96.7737 36.8257 93.702 34.0102C90.6303 31.1947 89.0783 27.5473 89.0783 23.1001V6.94282H101.882V21.5643C101.882 23.8679 102.367 25.5636 103.305 26.6515C104.243 27.7393 105.73 28.2832 107.799 28.2832C109.869 28.2832 111.356 27.7393 112.294 26.6515C113.231 25.5636 113.716 23.8679 113.716 21.5643V6.94282H126.52V23.1001C126.52 27.5793 124.968 31.2267 121.864 34.0102C118.663 36.8257 114.007 38.2335 107.767 38.2335Z" fill="var(--fill-0, black)"/>
</g>
<path id="Vector_4" d="M146.373 0H133.634V37.1777H146.373V0Z" fill="var(--fill-0, black)"/>
<path id="Vector_5" d="M180.485 6.97481L173.113 23.228L166.226 6.97481H152.613L165.967 34.4581L159.145 47H173.533L194 6.97481H180.485Z" fill="var(--fill-0, black)"/>
</g>
</svg>
