<svg preserveAspectRatio="none" width="100%" height="100%" overflow="visible" style="display: block;" viewBox="0 0 164 48" fill="none" xmlns="http://www.w3.org/2000/svg">
<g id="Quince" clip-path="url(#clip0_26_1134)">
<path id="Vector" d="M17.302 40.0488C20.1077 39.1576 22.9134 38.1592 25.7191 37.0712C33.6964 33.8176 37.3807 27.6408 37.3807 19.012C37.3807 9.3496 30.8344 0.542399 19.2563 0.542399C7.05039 0.542399 0.401961 9.8664 0.401961 19.9832C0.401961 29.9312 7.40653 37.8736 18.2273 37.8736L8.07137 41.36L9.00714 42.9024C10.6328 42.2094 12.3735 41.8224 14.141 41.7608C19.5192 41.7608 23.5686 48.0008 29.975 48.0008C34.3885 48.0008 36.5214 45.0856 37.5319 41.8856C36.2038 43.2056 33.9681 43.7752 31.6673 43.7752C26.0655 43.7672 22.0717 40.2192 17.3028 40.0496M7.20957 19.3504C6.42494 10.3744 10.7364 2.0576 17.2361 2.0576C25.2793 2.0576 29.8054 10.4896 30.5916 19.4664C30.9558 26.268 28.786 36.6528 20.5 36.6528C11.8868 36.6528 7.57535 26.0984 7.21118 19.3504M65.9248 11.176L59.4532 14.2608C60.9678 16.044 61.2669 18.4952 61.2669 20.4384V29.7624C58.7884 33.1312 56.0767 35.6984 52.6906 35.6984C46.7054 35.6984 47.0045 30.5024 47.0045 24.672V11.408L40.5426 14.4928C42.0572 16.2752 42.3562 18.7264 42.3562 20.6696V26.0984C42.3562 32.276 42.7212 37.9896 50.2684 37.9896C55.0011 37.9896 58.4708 35.4936 61.2669 31.7496V38.32L67.7384 35.352C66.2238 33.5688 65.924 31.1176 65.924 29.1744L65.9248 11.176ZM74.9392 6.1224C75.3674 6.14442 75.7956 6.0788 76.1973 5.9296C76.5953 5.78352 76.9583 5.55657 77.2633 5.2632C77.5656 4.972 77.7995 4.6232 77.9498 4.2392C78.101 3.856 78.1645 3.4472 78.138 3.0384C78.1641 2.6314 78.099 2.2237 77.9474 1.8448C77.793 1.46222 77.5577 1.11711 77.2577 0.832799C76.9513 0.54489 76.5883 0.323176 76.1917 0.181599C75.7903 0.0396751 75.3642 -0.0193929 74.9392 0.00799867C74.5104 -0.0211952 74.0802 0.0365028 73.6746 0.177599C73.2728 0.316339 72.9045 0.53705 72.5933 0.825599C72.2854 1.1112 72.0434 1.4568 71.8859 1.8384C71.728 2.21817 71.6561 2.62786 71.6752 3.0384C71.6551 3.4512 71.7259 3.8632 71.8826 4.248C72.0402 4.6328 72.2806 4.9816 72.5877 5.272C72.8956 5.5632 73.2638 5.7888 73.669 5.936C74.0754 6.08274 74.5074 6.14561 74.9392 6.1224ZM77.7175 11.176L71.1712 14.2608C72.6866 16.044 72.9856 18.3792 72.9856 20.4384V31.5264C72.9856 33.5864 72.6858 35.9304 71.1712 37.704H79.5135C77.9981 35.9216 77.699 33.5864 77.699 31.5272L77.7175 11.176ZM108.328 23.5224C108.328 17.4072 108.206 11.0424 100.416 11.0424C95.9826 11.0424 93.2147 12.4512 89.4178 17.5592V11.212L82.8715 14.2968C84.386 16.0792 84.6851 18.4144 84.6851 20.4736V31.528C84.6851 33.5872 84.386 35.9312 82.8715 37.7048H91.2137C89.6984 35.9224 89.3993 33.5872 89.3993 31.528V19.6448C92.8779 14.4032 95.5807 13.236 97.863 13.236C104.026 13.236 103.596 18.9496 103.596 24.6096V31.5272C103.596 33.5864 103.297 35.9304 101.791 37.704H110.124C108.618 35.9216 108.309 33.5864 108.309 31.5272L108.328 23.5224ZM152.171 10.9536C144.437 10.9536 138.573 16.3024 138.573 24.4944C138.573 32.2136 143.829 37.9904 151.872 37.9904C156.856 37.9904 160.673 35.7704 163.216 30.9744L163.375 30.7344L162.964 30.3864C162.964 30.3864 160.812 33.8264 157.82 35.1104C156.739 35.4729 155.604 35.6538 154.462 35.6456C147.131 35.6456 144.231 29.4056 143.81 24.3336H163.59V23.7544C163.796 16.2664 159.868 10.9536 152.171 10.9536ZM143.754 20.8936C144.362 15.6344 147.205 12.4256 151.311 12.4256C152.251 12.4191 153.183 12.593 154.057 12.9376C154.921 13.2796 155.708 13.7877 156.375 14.4328C157.031 15.0672 157.549 15.8291 157.897 16.6712C158.241 17.5036 158.406 18.3986 158.381 19.2984C158.381 22.8632 155.659 22.8632 152.274 22.9528L143.698 23.0688C143.679 22.3288 143.679 21.58 143.754 20.8936ZM136.507 31.696C135.812 32.8988 134.812 33.8988 133.606 34.596C132.38 35.3064 130.994 35.698 129.576 35.7344H128.754C121.225 35.6624 117.344 28.9064 117.344 22.4792C117.344 16.7656 120.364 12.3536 125.864 12.3536C129.604 12.3536 132.41 14.0288 133.476 19.9032H134.065L136.198 13.9576C133.476 11.676 129.848 10.936 126.584 10.936C116.857 10.936 112.322 17.6216 112.322 24.2536C112.322 31.1704 117.222 37.972 126.284 37.972C127.802 38.036 129.316 37.8112 130.743 37.312C132.159 36.8184 133.466 36.0555 134.589 35.0656C134.848 34.8629 135.078 34.6341 135.282 34.3792L135.356 34.2816C135.96 33.5905 136.484 32.8337 136.917 32.0256L136.507 31.696Z" fill="var(--fill-0, black)"/>
</g>
<defs>
<clipPath id="clip0_26_1134">
<rect width="164" height="48" fill="white"/>
</clipPath>
</defs>
</svg>
