<svg preserveAspectRatio="none" width="100%" height="100%" overflow="visible" style="display: block;" viewBox="0 0 240 78.0952" fill="none" xmlns="http://www.w3.org/2000/svg">
<g id="S&#195;&#169;zane">
<path id="Vector" d="M199.81 40.7619H204.381C205.333 40.7619 206.286 40.5714 207.238 40.5714C208 40.381 208.952 40.381 209.714 40.1905C210.667 40 211.429 40 212.381 39.6191C212.762 39.4286 213.333 39.4286 213.905 39.4286C214.857 39.2381 216 39.2381 217.143 39.0476C218.095 38.8572 219.048 38.8571 220.19 38.6667C220.762 38.6667 221.524 38.4762 222.095 38.2857L226.667 37.1429L229.714 36.5714C230.667 36.381 231.619 36.1905 232.571 35.8095C233.524 35.4286 234.667 35.2381 235.619 35.0476C236.571 34.8571 237.333 34.4762 238.095 34.0952C238.857 33.7143 239.238 33.9048 239.619 34.6667C239.81 35.0476 240 35.4286 240 36C240 36.5714 239.619 36.9524 239.238 37.3333C238.476 37.7143 237.714 37.9048 236.952 38.0952L233.714 38.6667C233.143 38.6667 232.571 38.8572 232.19 39.0476C230.667 39.4286 229.143 39.6191 227.429 40C224.762 40.5714 222.095 40.9524 219.619 41.9048C218.857 42.0952 218.286 42.4762 217.524 42.6667C216.571 43.0476 215.81 43.2381 214.857 43.4286C213.905 43.6191 212.952 43.8095 212 43.8095C210.857 44 209.905 44.1905 208.762 44.1905C208.19 44.5714 207.429 44.1905 206.857 44.5714H206.667C205.905 44.5714 204.952 44.7619 204.19 44.7619C203.429 44.7619 202.667 44.7619 201.905 44.9524C201.524 45.1429 200.952 44.9524 200.571 45.1429C199.238 45.3333 198.095 45.5238 196.762 45.1429C196.381 44.9524 195.81 44.9524 195.238 44.9524C194.095 44.7619 192.952 44.5714 191.81 44C190.476 43.2381 189.714 42.2857 189.143 40.9524C188.952 40.5714 188.762 40.1905 188.571 39.6191C188.381 39.2381 188.381 39.2381 188 39.4286C187.048 39.8095 185.905 40.1905 184.952 40.7619C183.81 41.3333 182.667 41.5238 181.524 41.9048C180.19 42.2857 178.857 42.4762 177.524 42.6667C176.571 42.8571 175.619 43.0476 174.667 42.6667C173.714 42.2857 172.952 41.9048 172.381 41.1429C171.619 39.8095 171.238 38.4762 171.048 37.1429C170.857 35.8095 170.857 34.6667 170.857 33.3333C170.857 32.5714 171.048 32 171.238 31.2381C171.429 30.4762 171.619 29.9048 171.619 29.1429C171.619 28.7619 171.429 28.5714 171.048 28.5714C170.667 28.5714 170.286 28.7619 169.714 28.9524C168.952 29.1429 168.19 29.7143 167.429 30.2857L164.952 32.1905C163.81 33.1429 162.667 34.0952 161.333 35.0476C160.19 36 159.048 36.7619 157.905 37.7143C156.381 38.8571 154.857 39.8095 153.333 40.9524C152.952 41.1429 152.381 41.3333 152 41.3333C151.238 41.5238 150.857 41.3333 150.476 40.5714C150.095 39.8095 149.714 39.2381 149.333 38.4762C149.143 37.9048 149.143 37.1429 149.143 36.5714C149.143 35.2381 149.905 34.0952 150.286 32.9524L152 29.5238V29.3333C152 29.3333 151.81 29.3333 151.81 29.5238L151.048 30.2857C150.095 31.2381 149.143 32 148.19 32.7619C147.429 33.5238 146.476 34.0952 145.714 34.8571C144.762 35.6191 143.81 36.1905 143.048 36.9524L139.619 39.2381C138.476 40 137.143 40.7619 136 41.3333C135.238 41.7143 134.667 42.0952 133.905 42.4762C133.143 42.8571 132.381 43.0476 131.619 42.8572C131.238 42.8572 130.667 42.6667 130.476 42.2857C129.333 41.1429 128.571 40 128.19 38.4762C128 37.7143 127.81 37.1429 128.19 36.381V36.1905H128C127.429 36.5714 127.048 36.9524 126.476 37.3333C124.381 38.8572 122.286 40.1905 120 41.3333C119.048 41.7143 118.286 41.9048 117.333 41.5238C116.762 41.3333 116.19 40.9524 115.81 40.381C114.857 39.2381 114.095 38.0952 113.333 36.7619C112.952 36.381 112.952 36.381 112.571 36.5714C111.238 37.3333 109.905 38.0952 108.381 38.8571C107.619 39.2381 106.667 39.6191 105.714 40C104.762 40.381 104 40.7619 103.048 41.1429C101.143 42.0952 99.2381 43.2381 97.3333 44.1905C96 44.9524 94.8571 45.5238 93.7143 46.2857C93.5238 46.2857 93.5238 46.4762 93.3333 46.6667C93.1429 46.8572 93.1429 46.8572 93.3333 47.0476C93.5238 47.2381 93.5238 47.6191 93.7143 47.8095C94.4762 48.9524 95.0476 50.2857 95.4286 51.6191C96 53.5238 96 55.4286 96 57.5238C96 59.4286 95.4286 61.3333 94.6667 63.0476C93.9048 64.5714 92.9524 65.9048 92 67.2381C91.0476 68.381 90.0952 69.3333 88.9524 70.2857C87.4286 71.6191 85.9048 72.7619 84.1905 73.7143C82.0952 74.8572 79.8095 75.8095 77.5238 76.7619C76.5714 77.1429 75.619 77.3333 74.6667 77.3333H72C71.2381 77.3333 70.4762 77.1429 69.7143 76.9524C68.7619 76.7619 68.1905 76 67.619 75.4286C67.2381 74.8571 66.8571 74.4762 66.4762 74.0952C65.5238 73.1429 65.1429 72.1905 64.9524 70.8572C64.9524 70.4762 64.7619 70.2857 64.7619 69.9048C64.7619 68.7619 64.9524 67.8095 65.5238 66.6667C66.4762 64.9524 67.619 63.2381 68.7619 61.5238C70.2857 59.4286 72 57.7143 73.9048 56C74.6667 55.2381 75.4286 54.6667 76.1905 54.0952C76.9524 53.5238 77.5238 52.9524 78.2857 52.381C79.4286 51.4286 80.5714 50.4762 81.7143 49.7143C83.4286 48.381 85.1429 47.2381 86.8571 46.2857C87.0476 46.2857 87.0476 46.0952 87.0476 46.0952C87.4286 45.7143 87.4286 45.7143 87.0476 45.5238C86.4762 44.9524 86.0952 44.381 85.9048 43.6191C85.7143 43.0476 85.5238 42.4762 85.3333 41.7143C85.1429 40.9524 85.5238 39.6191 86.6667 39.2381C87.8095 38.8572 89.1429 38.4762 90.2857 37.9048C91.6191 37.3333 92.9524 36.7619 94.0952 35.8095C95.0476 35.0476 95.8095 34.0952 96.5714 33.1429C96.9524 32.5714 96.7619 32.381 96.3809 32C95.619 31.6191 94.8571 31.2381 93.9048 31.2381C91.0476 31.0476 88.7619 32.1905 86.4762 33.9048C85.1429 34.8571 83.8095 35.8095 82.2857 36.9524C80.9524 37.9048 79.8095 38.8571 78.4762 39.8095C76.1905 41.5238 73.7143 43.2381 71.0476 44.381C69.1429 45.1429 67.4286 45.7143 65.3333 46.0952C64.5714 46.2857 63.8095 46.2857 63.0476 46.2857C62.0952 46.2857 61.1429 45.9048 60.381 45.3333C58.8571 44.381 58.0952 42.8572 57.5238 41.3333C57.1429 40.381 56.9524 39.4286 56.7619 38.4762C56.7619 38.2857 56.5714 38.0952 56.5714 37.9048C56.381 37.7143 56.1905 37.5238 56 37.5238C55.2381 37.5238 54.4762 37.5238 53.9048 37.7143C53.5238 37.9048 53.3333 38.0952 53.3333 38.4762V41.5238C53.3333 43.4286 52.9524 45.3333 52.1905 47.2381C51.4286 49.1429 50.2857 50.8572 48.9524 52.5714C47.619 54.2857 46.0952 55.4286 44.1905 56.1905C42.8571 56.7619 41.5238 57.3333 40.1905 57.7143C39.2381 57.9048 38.2857 58.2857 37.1429 58.0952C36 58.0952 34.8571 57.7143 33.9048 57.1429C33.1429 56.7619 32.5714 56 31.8095 55.4286C30.8571 54.8572 30.0952 53.9048 29.3333 53.1429L28.9524 52.7619C28.1905 51.8095 28.1905 50.8572 28.7619 49.7143C29.5238 48.1905 30.4762 46.8572 31.8095 45.9048C32.5714 45.1429 33.5238 44.5714 34.4762 44C35.2381 43.6191 36 43.0476 36.7619 42.4762C38.2857 41.5238 39.619 40.7619 41.3333 40.1905C41.5238 40.1905 41.7143 40 41.7143 40C43.4286 39.0476 45.3333 38.2857 47.0476 37.5238C47.4286 37.3333 47.8095 37.1429 48.381 36.9524C48.7619 36.7619 48.7619 36.5714 48.7619 36.1905C48.5714 35.8095 48.5714 35.4286 48.381 35.0476C47.619 32.9524 46.8571 30.8571 46.0952 28.5714C45.7143 27.4286 45.1429 26.0952 44.7619 24.9524C44 22.8571 43.2381 20.7619 42.6667 18.6667C42.6667 18.2857 42.4762 17.9048 42.4762 17.7143V17.1429C42.2857 17.1429 42.0952 17.3333 41.7143 17.5238C41.5238 17.7143 41.3333 17.7143 41.3333 17.9048C37.9048 21.3333 34.2857 24.7619 31.0476 28.381C29.5238 29.9048 28 31.6191 26.4762 33.1429C25.5238 34.2857 24.381 35.0476 23.2381 36.1905C22.4762 36.9524 21.5238 37.7143 20.5714 38.2857C19.619 39.0476 18.4762 39.8095 17.5238 40.7619L14.8571 42.8572C13.5238 43.8095 12.1905 44.9524 10.8571 45.7143C9.14286 46.8572 7.61905 48 5.90476 49.3333C5.71429 49.5238 5.52381 49.5238 5.33333 49.7143C4.57143 50.0952 4 50.4762 3.04762 50.4762C2.09524 50.4762 1.33333 50.4762 0.571429 50.0952H0.380952C0.190476 48.5714 0 48.381 0 48.1905C0 48 0.190476 48 0.380952 47.8095C1.33333 47.4286 2.09524 46.6667 2.85714 46.0952C3.80952 45.3333 4.57143 44.5714 5.52381 44C6.47619 43.2381 7.2381 42.4762 8.19048 41.9048L10.8571 39.8095C11.2381 39.4286 11.8095 39.0476 12.1905 38.6667C13.3333 37.5238 14.6667 36.1905 16 35.2381C16.7619 34.6667 17.5238 33.9048 18.2857 33.3333C19.4286 32.381 20.381 31.4286 21.5238 30.6667C22.0952 30.2857 22.4762 29.7143 23.0476 29.3333C23.8095 28.5714 24.5714 28 25.3333 27.2381C26.0952 26.4762 26.8571 25.7143 27.8095 25.1429L28 24.9524C28.9524 24 29.9048 23.2381 30.8571 22.2857C32.381 20.7619 33.9048 19.2381 35.4286 17.9048C36.9524 16.5714 38.2857 15.2381 39.619 13.9048C40 13.5238 40.1905 13.3333 40.381 12.9524L40.9524 12.381C42.6667 11.2381 43.8095 9.71429 44.7619 8.00001C46.3023 5.43372 48.2297 3.12074 50.4762 1.14286L51.0476 0.571435C51.619 6.15632e-06 52.1905 6.15632e-06 52.7619 0.380959C53.1429 0.761911 53.7143 0.952387 54.0952 1.33334L54.2857 1.52382C54.8571 1.90477 54.8571 1.90477 54.6667 2.66667C54.2857 3.61905 53.7143 4.57143 52.9524 5.33334L50.8571 7.42858C49.6946 8.5985 48.7296 9.94941 48 11.4286C47.4286 12.5714 47.0476 13.7143 47.0476 14.8571C47.0476 15.4286 46.8571 16 46.8571 16.5714C46.8571 17.9048 47.2381 19.2381 47.619 20.5714C48.1905 21.9048 48.5714 23.4286 49.3333 24.7619C49.9048 25.9048 50.2857 27.0476 50.6667 28C51.4286 29.7143 52 31.6191 52.7619 33.5238C52.7619 33.7143 52.7619 33.7143 52.9524 33.9048C53.1429 34.2857 53.5238 34.4762 53.7143 34.2857C54.6667 33.9048 55.619 34.0952 56.5714 33.7143C57.3333 33.5238 57.9048 33.3333 58.2857 32.5714C58.8571 31.6191 59.2381 30.8571 59.8095 29.9048C60.7619 28.1905 62.0952 26.6667 63.6191 25.3333C64.5714 24.5714 65.5238 23.8095 66.6667 23.0476C67.4286 22.6667 68.381 22.0952 69.3333 21.9048C69.7143 21.7143 69.9048 21.7143 70.2857 21.7143C70.4762 21.5238 70.8571 21.7143 71.0476 21.9048C72 22.6667 72.9524 23.4286 73.5238 24.5714C74.0952 25.5238 74.2857 26.6667 74.2857 27.8095C74.0952 28.7619 73.9048 29.7143 73.3333 30.4762C72.5714 31.4286 71.8095 32 70.8571 32.5714C69.1429 33.5238 67.4286 34.2857 65.5238 34.8571C64.381 35.2381 63.4286 35.6191 62.2857 35.8095C61.5238 36 61.1429 36.5714 61.1429 37.1429C60.9524 37.9048 60.9524 38.6667 60.9524 39.6191C60.9524 40.7619 61.7143 41.3333 62.8571 41.1429C66.0952 40.5714 69.1429 39.2381 72.1905 37.7143C73.7143 36.7619 75.2381 35.8095 76.5714 34.8571L82.4762 30.6667C84 29.7143 85.3333 28.5714 86.8571 27.6191C88.1905 26.6667 89.7143 26.0952 91.2381 25.9048C93.3333 25.7143 95.2381 25.7143 96.9524 27.0476L97.3333 27.4286C98.0952 28 98.4762 28.7619 99.0476 29.3333C99.619 30.0952 100 31.0476 100.19 32C100.381 33.1429 100 34.0952 99.4286 35.0476C98.4762 36.5714 97.1429 37.9048 95.8095 39.0476C95.0476 39.8095 93.9048 40.381 92.9524 40.9524C92.5714 41.1429 92 41.5238 91.8095 41.9048V42.0952C91.8095 42.2857 92 42.0952 92 42.0952L93.1429 41.5238C95.6191 40 98.2857 38.6667 100.952 37.3333C103.048 36.381 105.143 35.0476 107.429 34.0952C109.524 33.1429 111.619 32 113.714 31.0476C114.476 30.6667 115.429 30.0952 116.19 29.7143C116.762 29.3333 117.143 28.9524 117.524 28.381C118.095 27.6191 118.667 27.0476 119.238 26.4762C120 25.9048 120.571 25.3333 121.143 24.7619C122.857 23.4286 124.571 22.2857 126.476 21.1429C127.238 20.7619 127.81 20.381 128.571 19.8095C129.905 18.8571 131.238 18.2857 132.762 17.7143C133.714 17.5238 134.857 17.1429 135.81 16.9524C136.19 16.9524 136.762 16.7619 137.143 16.7619C138.095 16.7619 138.857 17.1429 139.619 17.7143C140 18.0952 140.19 18.4762 140.571 18.6667C140.762 18.6667 140.762 18.8571 140.762 18.8571C141.143 19.8095 141.524 20.7619 140.952 21.7143C140.762 22.2857 140.381 22.8571 140 23.2381C138.095 25.1429 136.571 27.2381 135.048 29.3333C134.095 30.8571 133.143 32.381 132.571 34.0952C132.19 35.0476 131.81 36 131.619 37.1429C131.619 37.5238 131.429 38.0952 131.429 38.4762C131.429 38.6667 131.429 38.8571 131.81 38.6667C133.143 37.9048 134.667 37.3333 136 36.5714C137.333 35.8095 138.667 34.8571 140 34.0952C141.143 33.5238 142.476 32.7619 143.619 32C144.571 31.4286 145.524 30.6667 146.286 29.9048L150.857 25.9048C151.619 25.1429 152.381 24.5714 153.143 23.8095C154.095 22.8571 155.048 22.0952 156 21.1429C156.381 20.7619 156.762 20.9524 156.952 21.1429C157.905 21.7143 158.667 22.4762 159.048 23.4286C159.238 23.8095 159.048 24.1905 159.048 24.5714C158.667 25.5238 158.095 26.4762 157.524 27.4286C157.524 27.6191 157.333 27.8095 157.143 28C156.571 29.1429 155.81 30.4762 155.238 31.6191C154.667 32.5714 154.286 33.5238 153.714 34.6667C153.714 34.8572 153.524 35.0476 153.524 35.2381V35.4286H153.714C154.286 34.8572 155.048 34.6667 155.619 34.2857C156.952 33.3333 158.476 32.381 159.81 31.2381C161.143 30.2857 162.286 29.3333 163.619 28.381C165.143 27.4286 166.476 26.2857 168 25.3333C168.381 24.9524 168.762 24.7619 169.333 24.381C169.905 24 170.667 23.8095 171.429 24C172.19 24.1905 172.762 24.5714 173.143 25.1429C173.714 25.9048 174.286 26.6667 174.476 27.8095C174.667 28.5714 174.857 29.1429 174.667 29.9048V30.4762C174.667 31.6191 174.476 32.7619 174.286 33.9048C174.095 34.8571 173.905 35.6191 174.095 36.5714C174.095 37.3333 174.667 37.9048 175.429 37.9048C176.19 37.9048 176.952 37.7143 177.524 37.5238C179.619 36.7619 181.905 36.381 184 35.8095C184.952 35.4286 185.905 35.2381 186.857 34.8571C187.429 34.6667 187.81 34.4762 188.381 34.0952C188.762 33.9048 188.952 33.5238 189.143 33.1429C189.333 32.5714 189.714 32 189.905 31.4286C190.476 30.0952 191.429 29.1429 192.381 28C194.095 26.0952 196.19 24.7619 198.286 23.4286C199.429 22.6667 200.571 22.0952 201.905 21.9048C202.476 21.7143 203.048 21.5238 203.619 21.5238C204 21.5238 204.381 21.3333 204.571 21.3333C205.333 21.3333 205.905 21.3333 206.667 21.5238C207.048 21.5238 207.238 21.9048 207.429 22.2857C208 22.8571 208.19 23.6191 207.81 24.381C207.619 24.7619 207.429 25.1429 207.81 25.5238V25.9048C207.619 27.2381 207.238 28.5714 206.095 29.3333C205.524 29.7143 204.952 30.0952 204.19 30.4762C202.476 31.4286 200.762 32.1905 199.048 33.1429C197.524 33.9048 195.81 34.8572 194.286 35.6191C193.702 35.9859 193.057 36.244 192.381 36.381C191.81 36.5714 191.429 36.9524 191.048 37.3333C190.857 37.5238 190.857 37.9048 191.048 38.0952C191.238 38.6667 191.81 39.0476 192.381 39.2381C193.143 39.4286 194.095 39.6191 195.048 39.8095C196.381 40.9524 198.286 40.5714 199.81 40.7619ZM93.5238 54.6667C93.5238 53.5238 93.5238 52.1905 93.1429 51.0476C92.818 49.7581 92.1613 48.5761 91.2381 47.6191C90.8571 47.2381 90.8571 47.2381 90.4762 47.6191C90.0952 47.8095 89.5238 48.1905 89.1429 48.5714C86.8571 49.9048 84.7619 51.2381 82.4762 52.5714C80.9524 53.5238 79.619 54.6667 78.4762 55.8095L75.4286 58.8571C74.8571 59.4286 74.2857 60.1905 73.7143 60.9524L71.4286 63.8095C70.2857 65.3333 69.1429 67.0476 68.381 68.7619C68 69.5238 67.8095 70.4762 68 71.4286C68 71.8095 68.1905 72.1905 68.5714 72.5714C69.1429 73.3333 69.9048 73.1429 70.6667 73.3333C71.0476 73.3333 71.4286 73.5238 71.619 73.3333C72.1905 73.1429 72.7619 73.1429 73.3333 73.1429C74.4762 72.9524 75.619 72.7619 76.7619 72.381C79.0476 71.8095 80.9524 70.6667 83.0476 69.5238C84.7619 68.5714 86.4762 67.2381 88 65.9048C89.5238 64.5714 90.8571 63.2381 91.8095 61.5238C92.1905 60.7619 92.7619 59.8095 92.9524 59.0476C93.3333 57.7143 93.5238 56.1905 93.5238 54.6667ZM49.3333 39.4286V38.2857C49.3333 37.9048 49.1429 37.5238 48.9524 37.1429C48.7619 36.9524 48.7619 36.9524 48.5714 36.9524C47.619 37.3333 46.8571 37.9048 45.9048 38.2857C45.1429 38.6667 44.381 39.2381 43.619 39.6191C43.0476 39.8095 42.4762 40 42.0952 40.5714C41.1429 41.5238 40.1905 42.2857 39.0476 43.2381C38.2857 43.8095 37.5238 44.381 36.9524 44.9524C36.1905 45.5238 35.4286 46.2857 34.8571 47.2381C34.2857 48.1905 33.7143 48.9524 33.1429 49.7143C32.381 50.6667 32.381 51.6191 32.7619 52.7619C32.9524 53.1429 33.3333 53.5238 33.7143 53.5238C34.4762 53.7143 35.0476 53.7143 35.8095 53.7143C36.1905 53.7143 36.381 53.5238 36.7619 53.5238C37.3333 53.5238 37.7143 53.3333 38.2857 53.3333C41.1429 52.381 43.619 51.0476 45.7143 48.9524C46.8571 47.8095 47.8095 46.2857 48.1905 44.7619C49.3333 42.8572 49.5238 41.1429 49.3333 39.4286ZM116.952 37.1429C116.952 37.7143 116.762 38.0952 117.143 38.2857C117.333 38.4762 117.524 38.0952 117.905 37.9048C118.476 37.7143 118.857 37.3333 119.429 37.1429C119.619 36.9524 119.81 36.9524 120.19 36.7619C123.238 34.8571 126.286 32.7619 129.143 30.4762C130.095 29.7143 130.857 28.7619 131.619 27.8095C132.381 26.8571 133.143 25.7143 133.714 24.7619C134.286 24 134.667 23.2381 135.238 22.4762C135.429 22.2857 135.429 22.0952 135.429 21.9048C135.429 21.7143 135.238 21.5238 135.048 21.5238C134.667 21.7143 134.095 21.7143 133.714 21.9048C132.952 22.2857 132.19 22.4762 131.429 22.8571C129.714 23.6191 128 24.5714 126.286 25.5238C124.571 26.4762 123.238 27.8095 121.714 29.1429C120.381 30.2857 119.048 31.6191 118.095 33.1429C117.333 34.4762 116.762 35.6191 116.952 37.1429ZM203.429 25.9048C201.714 25.9048 200.381 26.4762 199.048 27.4286C197.714 28.1905 196.571 29.1429 195.429 30.0952C194.476 30.8571 193.714 31.6191 192.952 32.381L192.762 32.5714H192.952C193.333 32.381 193.714 32.1905 194.095 32.1905L198.095 30.4762C199.619 29.9048 200.952 29.1429 202.286 28.1905C203.048 27.6191 203.619 27.0476 204.381 26.4762C204.571 26.2857 204.381 26.2857 204.381 26.0952C204.19 25.9048 203.81 25.9048 203.429 25.9048ZM64.9524 31.0476H65.1429C66.2857 30.4762 67.2381 29.9048 68.1905 29.1429C68.7619 28.7619 69.1429 28.1905 69.3333 27.6191C69.3333 27.4286 69.5238 27.4286 69.3333 27.2381C69.3333 27.0476 69.1429 27.2381 68.9524 27.2381C67.2381 28 65.9048 29.1429 64.7619 30.4762C64.7619 30.6667 64.5714 30.6667 64.5714 30.8572C64.9524 30.8572 64.7619 30.8571 64.9524 31.0476Z" fill="var(--fill-0, black)"/>
<path id="Vector_2" d="M61.7141 20.5714C60.7617 20.7619 59.9998 20.381 59.2379 19.6191C59.0474 19.4286 59.0474 19.2381 59.2379 19.0476C59.4284 18.8572 59.6189 18.6667 59.8093 18.6667C60.5712 18.2857 61.5236 17.9048 62.2855 17.3333C63.6189 16.5714 64.9522 15.8095 66.476 15.0476C67.0474 14.6667 67.6189 14.4762 68.1903 14.0953C69.9046 13.1429 71.8093 12.1905 73.5236 11.2381C74.6665 10.4762 75.9998 9.90477 77.1427 9.33335C77.7141 8.95239 78.2855 8.76192 78.857 8.38096C79.4284 8.00001 80.1903 8.00001 80.7617 7.80954C81.1427 7.80954 81.5236 8.00001 82.095 8.00001C82.476 8.19049 82.6665 8.19049 82.6665 8.76192V9.52382C82.6665 9.90477 82.476 10.2857 82.095 10.6667C80.5712 11.8095 79.0474 12.7619 77.5236 13.9048C75.0474 15.4286 72.5712 16.9524 69.9046 18.2857C68.1903 19.0476 66.2855 19.8095 64.3808 20.1905C63.6189 20.381 62.6665 20.7619 61.7141 20.5714Z" fill="var(--fill-0, black)"/>
</g>
</svg>
