<svg preserveAspectRatio="none" width="100%" height="100%" overflow="visible" style="display: block;" viewBox="0 0 125.625 120" fill="none" xmlns="http://www.w3.org/2000/svg">
<g id="Sproos (PNG) [Vectorized]">
<path id="Vector" d="M52.423 40.5956C58.1059 40.078 65.4829 42.118 69.087 46.7251C72.502 51.0905 72.2132 56.9959 67.8581 60.5876C64.1557 63.6409 59.2657 62.8753 55.2285 61.0249C54.1299 60.5371 53.0576 59.7745 51.8731 59.5468C51.0085 59.3807 49.6048 60.2733 49.6779 61.1177C49.8802 63.4543 54.6336 65.3586 56.3579 66.2855C57.3455 66.8269 58.3102 67.4091 59.2493 68.0305C70.3137 75.3956 71.4817 87.9889 61.0399 96.8231C55.5891 101.435 47.9988 102.55 41.0422 101.746C36.3642 101.133 31.2523 98.8064 27.8537 95.533C24.9186 92.706 23.0057 89.3562 22.9405 85.2095C22.8962 82.3944 23.7149 79.8439 25.7121 77.8057C27.3629 76.121 29.2274 75.2319 31.5897 75.2033C38.6453 75.118 42.8984 81.8164 46.2813 81.7289C46.8926 81.7131 47.5456 81.5625 47.9718 81.0933C48.3453 80.6821 48.6202 79.8932 48.5835 79.3398C48.4315 77.0448 43.7643 75.6538 42.0481 74.7217C40.6545 73.9649 39.2988 73.0781 38.0814 72.0602C34.8133 69.3282 32.7509 65.5642 32.3911 61.3065C31.9461 56.4469 33.4767 51.6128 36.6375 47.8948C40.6156 43.2103 46.4444 41.0938 52.423 40.5956Z" fill="var(--fill-0, #121212)"/>
<path id="Vector_2" d="M87.708 17.616C95.7519 16.5 103.352 23.5487 102.723 31.6622C102.475 34.8589 101.138 38.6807 100.241 41.8226L96.2035 55.9971L92.9717 67.3777C92.0892 70.4716 91.4714 74.2284 89.1387 76.5146C86.1106 78.7688 82.571 79.1891 79.3855 76.9407C75.4814 74.1851 76.0759 69.0716 76.0797 64.868L76.092 53.1722C76.0496 47.5084 75.7773 41.8279 75.9187 36.15C76.0701 33.7519 75.6671 30.9301 76.0614 28.5777C77.0642 22.5967 81.9712 18.4129 87.708 17.616Z" fill="var(--fill-0, #121212)"/>
<path id="Vector_3" d="M79.3917 81.1385C85.1504 80.4688 90.3643 84.5877 91.0454 90.3451C91.7266 96.1025 87.6179 101.324 81.8619 102.017C76.0897 102.711 70.85 98.5887 70.1669 92.8152C69.484 87.0418 73.6169 81.8102 79.3917 81.1385Z" fill="var(--fill-0, #121212)"/>
<path id="Vector_4" d="M28.9765 41.6087C28.565 40.2725 28.3106 38.6777 28.9778 37.38C29.3726 36.5931 30.0744 36.0037 30.9178 35.7512C33.9132 34.8693 34.6342 37.3672 35.4419 37.507C35.8326 37.2626 36.0028 36.9307 36.1212 36.8429C36.4305 36.6136 37.4573 36.9189 37.8196 36.6757C37.043 36.0124 34.4305 36.8459 34.2933 34.4655C34.1966 32.7893 35.5724 31.3263 37.1865 31.0904C38.0057 30.9707 38.9167 31.7052 39.0103 32.5091C39.116 33.3682 37.8273 33.9616 37.1819 34.3341C37.5478 34.4737 38.7205 34.4123 39.1759 34.4019C39.9531 34.833 40.2478 35.0686 40.7586 35.7978C41.2716 40.8902 36.0687 39.5227 35.9701 39.7766C35.0562 42.1311 35.3161 42.889 32.1962 43.6512C31.3819 43.4577 31.1435 43.3632 30.3851 43.007C31.7628 46.0373 30.7782 48.1748 27.5585 49.1065C27.0388 48.9506 25.959 48.4404 25.6921 48.4675C25.3956 48.8844 25.4101 50.1668 24.6082 50.5208C24.136 50.3455 23.4644 49.9357 23.1019 50.0035C22.7966 51.8225 30.0548 52.123 26.3504 55.1429C25.9149 55.4979 25.2578 55.3042 24.7708 55.1653C24.9554 55.6991 25.2009 56.3443 25.3148 56.8875C25.0157 57.9472 24.7727 58.5574 24.1744 59.5029C25.4788 59.6459 27.6506 59.5256 28.5684 60.534C29.0389 61.0509 29.0476 62.2826 28.5192 62.7277C27.7632 63.5415 25.4351 62.5598 25.0343 62.7456C25.6277 65.1397 26.1141 66.8858 23.2131 68.0413C22.5358 67.6792 22.0303 67.506 21.7208 66.7932C21.7183 66.5545 21.6995 66.456 21.7816 66.2366C21.9702 65.9331 22.5385 65.1511 22.3752 64.8507C21.9223 65.1093 21.5668 65.7404 21.2503 66.1968C20.8498 66.5722 20.3531 66.7239 19.8419 66.9236C17.9994 66.3211 17.4439 65.6351 16.9584 63.759C17.2297 62.7345 18.0701 60.9475 19.3982 61.3235C20.7654 62.2234 19.8139 63.5995 19.9553 64.102L20.1049 64.115C21.0049 63.0312 20.6709 62.5825 22.5075 61.5622C21.4649 61.1664 19.2978 60.5134 18.781 59.5019C18.5358 59.0221 18.9954 58.3418 19.0426 57.9019C19.1386 57.0069 18.7819 55.7793 19.1144 54.9437C19.4026 54.2195 20.3511 53.8278 21.0341 53.5416C21.6779 53.7006 22.4495 53.9197 23.0803 54.0557C21.7905 53.3149 20.7356 52.7585 20.2198 51.2559C20.4661 50.9415 20.7812 50.514 21.0585 50.2424C21.061 48.0771 21.3021 46.2554 24.1312 46.944C22.5412 43.0718 25.0182 40.0278 28.9765 41.6087Z" fill="var(--fill-0, #121212)"/>
<path id="Vector_5" d="M52.0833 27.6657C57.2392 27.2507 58.2668 32.6143 54.2241 34.9872C53.9761 35.1326 53.0184 35.3583 52.6817 35.4512C51.4738 35.1308 50.6412 34.9849 49.8881 33.9369C48.4435 36.7436 44.9688 36.7095 43.1211 34.2415C42.7746 33.5292 42.6179 32.9695 42.6516 32.1635C42.6842 31.1368 43.1278 30.1664 43.8826 29.4698C44.7286 28.7038 45.5654 28.5428 46.7001 28.5754C48.1653 28.6174 49.1713 31.1443 47.4395 31.5427C46.7242 31.7072 46.3068 31.5143 45.6623 32.0719C45.4711 32.4703 45.4929 32.2995 45.5617 32.717C45.8893 33.0623 45.728 32.9743 46.1637 33.0789C47.3803 32.7565 46.9273 31.7012 48.9034 31.888C49.9376 31.3324 48.6846 28.8708 52.0833 27.6657Z" fill="var(--fill-0, #121212)"/>
<path id="Vector_6" d="M42.3821 35.2671C43.843 35.1486 44.7799 36.6372 43.0867 37.5274C41.3417 37.7764 40.8801 36.3721 42.3821 35.2671Z" fill="var(--fill-0, #121212)"/>
<path id="Vector_7" d="M21.2503 66.1968C21.5668 65.7404 21.9223 65.1093 22.3752 64.8508C22.5385 65.1511 21.9702 65.9331 21.7816 66.2366L21.2503 66.1968Z" fill="var(--fill-0, #0B0723)" fill-opacity="0.0196078"/>
</g>
</svg>
