<svg preserveAspectRatio="none" width="100%" height="100%" overflow="visible" style="display: block;" viewBox="0 0 197.674 60" fill="none" xmlns="http://www.w3.org/2000/svg">
<g id="Group">
<path id="Vector" d="M197.652 2.72165L196.539 10.9769C196.428 11.6637 195.991 13.5298 194.243 13.5298H168.873C159.305 13.5298 150.795 18.8652 147.087 26.5513C143.428 34.1374 133.377 55.6595 133.377 55.6595C131.788 58.9188 130.982 59.2328 129.544 59.2328H111.67C110.433 59.2328 109.42 58.3497 109.169 57.1881C108.916 56.0343 105.271 36.5569 103.6 30.1187C103.445 29.5222 103.225 28.9296 102.953 28.337C100.262 21.0492 93.6307 13.5298 77.2909 13.5298H51.1449C50.6433 13.5298 49.4714 13.7849 49.2323 15.2997L43.2455 56.6818C43.0162 58.2026 42.0383 59.2328 40.6195 59.2328H29.6375C28.2245 59.2328 26.9214 58.1182 27.084 56.6818C27.2702 55.0002 32.7769 16.7126 32.9591 15.4449C33.1022 14.4049 32.1008 13.5298 31.0406 13.5298H2.56649C1.15552 13.5298 -0.155502 12.3406 0.0149894 10.9769C0.207038 9.40119 0.996791 4.22474 1.29074 2.55094C1.50631 1.30883 2.42343 0 4.50069 0H78.2806C107.497 0 116.4 16.1278 119.063 28.282C119.067 28.2977 119.079 28.3134 119.083 28.3291C120.802 35.7524 121.736 41.0995 122.285 44.2705C122.405 44.9613 123.349 45.077 123.631 44.4334L133.898 21.1885C139.127 8.79681 152.288 0 166.576 0H195.12C196.531 0 197.862 1.09887 197.652 2.72165ZM193.817 30.3817C192.961 35.566 190.931 50.3162 190.494 53.3597C190.061 56.4071 190.696 57.2901 190.696 57.9553C190.696 58.6598 190.123 59.2328 189.416 59.2328H178.32C176.913 59.2328 175.769 58.0907 175.769 56.6818V54.3821C175.769 55.1552 169.121 60 157.891 60C150.397 60 145.38 55.0551 145.38 48.9211C145.38 43.621 149.139 39.4728 154.036 38.0796C161.604 35.927 169.125 35.0479 176.535 32.8364C177.842 32.4479 178.832 31.298 178.832 29.8695C178.832 28.178 177.548 26.8064 174.493 26.8064C168.343 26.8064 168.049 30.4739 167.597 30.9272C167.14 31.3844 166.507 31.6591 165.81 31.6591H153.297C152.59 31.6591 152.021 31.0861 152.021 30.3817C152.021 26.722 158.984 17.8703 172.96 17.8703C192.095 17.8703 194.644 25.3347 193.817 30.3817ZM177.044 41.8707C177.044 41.1662 176.472 40.5952 175.769 40.5952C174.236 40.5952 168.277 42.636 163.738 44.0429C162.133 44.5413 160.93 45.7226 160.93 47.4082C160.93 49.4293 162.647 51.0658 164.763 51.0658C169.929 51.0658 177.044 46.5173 177.044 41.8707ZM98.8435 40.3401C98.8435 41.749 97.699 42.893 96.29 42.893H68.3979C67.1673 42.893 66.4676 43.933 66.4676 44.7513C66.4676 48.9132 70.2185 51.0639 74.5258 51.0639C77.5045 51.0639 80.6636 49.8159 81.9315 48.0008C82.1647 47.6907 82.535 47.4886 82.9525 47.4886H95.4944C96.2018 47.4886 96.7701 48.042 96.7701 48.7661C96.7701 51.2405 89.8642 60 72.9953 60C58.1292 60 51.1449 49.3508 51.1449 40.8484C51.1449 26.9968 61.7566 17.8703 76.0583 17.8703C99.1218 17.8703 98.8435 35.9996 98.8435 40.3401ZM83.6638 33.0758C83.6638 29.6909 80.0286 26.5513 75.8036 26.5513C70.7789 26.5513 67.3769 30.1226 67.3769 34.21C67.3769 34.9164 67.9492 35.4894 68.6527 35.4894H81.712C83.1229 35.4894 83.6638 34.4867 83.6638 33.0758Z" fill="var(--fill-0, #121212)"/>
</g>
</svg>
