<svg preserveAspectRatio="none" width="100%" height="100%" overflow="visible" style="display: block;" viewBox="0 0 210 52" fill="none" xmlns="http://www.w3.org/2000/svg">
<g id="Wool&#38;">
<path id="Vector" d="M208.848 47.0559C208.536 46.1977 207.53 45.2198 205.727 45.2816C203.371 45.355 201.386 44.4988 198.738 42.2238C198.634 42.1349 198.615 41.9764 198.695 41.8682C200.351 39.6608 202.007 37.0766 202.031 34.0747C202.07 29.0453 198.727 25.7188 196.4 25.3439C195.216 25.1526 194.328 25.6841 193.969 26.8014C193.78 27.3929 194.153 27.8818 194.583 28.4462C194.819 28.7593 195.088 29.1129 195.337 29.5557C197.712 33.7965 196.001 36.3168 194.869 37.983C194.841 38.0274 194.765 38.1377 194.765 38.1377C194.722 38.1996 194.651 38.2421 194.57 38.2421C194.503 38.2421 194.443 38.215 194.401 38.1686L193.737 37.5327C188.507 32.5438 184.33 28.5603 181.331 25.0289C181.241 24.9225 181.268 24.762 181.385 24.6848L181.997 24.2886C187.907 20.4653 192.574 17.4442 192.356 11.2223C192.148 5.26706 186.621 0.599155 179.998 0.809839C176.768 0.914214 173.535 2.45472 171.129 5.03899C168.704 7.64257 167.379 10.9961 167.493 14.2434C167.599 17.2471 168.985 20.7263 171.732 24.8606C171.823 24.996 171.79 25.1816 171.655 25.2724C167.473 28.0945 163.231 31.6702 163.525 37.8922C163.961 47.0637 172.025 51.0647 180.1 51.0647C180.389 51.0647 180.678 51.059 180.967 51.0493C185.943 50.8735 190.139 49.5456 193.445 47.1023C193.494 47.1005 193.531 47.1005 193.581 47.0984C197.11 49.333 200.405 50.3613 203.637 50.2509C204.854 50.2086 206.891 50.1369 208.381 48.958C208.937 48.5173 209.115 47.7886 208.848 47.0559ZM179.609 5.87206C180.884 5.64592 182.003 5.91457 182.928 6.66647C184.105 7.62326 184.877 9.3667 184.94 11.2145C185.091 15.5094 182.972 17.9274 178.737 20.9525C178.606 21.0451 178.415 21.0104 178.328 20.8771C176.329 17.8327 175.351 15.1093 175.253 12.3472C175.158 9.61993 176.795 6.36881 179.609 5.87206ZM181.179 46.6906C175.468 46.6906 171.857 41.5318 171.726 37.809C171.582 33.6668 173.155 31.3861 174.997 29.6253C175.118 29.5093 175.303 29.5189 175.411 29.6504C178.496 33.4137 182.899 37.815 189.061 43.3641C189.212 43.4995 189.21 43.7372 189.058 43.8726C187.207 45.5251 184.621 46.6906 181.179 46.6906Z" fill="var(--fill-0, #24282A)"/>
<path id="Vector_2" d="M62.9911 17.6319C62.1167 18.1731 60.9091 18.7104 59.3646 20.8656C58.3553 22.3481 57.2824 24.4356 56.1423 27.3986C54.7979 30.8373 49.2279 45.9931 47.9549 49.4973C47.7507 50.0346 47.4849 50.17 46.9456 50.17H41.4412C40.9058 50.17 40.6361 49.969 40.5012 49.5631L31.9787 24.4356C31.9094 24.2346 31.8438 24.2346 31.7745 24.2346C31.7091 24.2346 31.6398 24.2346 31.5742 24.4356L22.578 49.4973C22.3776 49.969 22.108 50.17 21.5726 50.17H15.9313C15.261 50.17 14.9914 50.0346 14.7911 49.4973L7.00233 24.5052C6.19727 21.8785 5.52508 19.9223 4.31556 18.9115C3.57597 18.2388 2.77284 17.9682 2.03325 17.5661C1.29752 17.1602 0.827572 16.8239 0.827572 16.0179C0.827572 15.1404 1.49782 14.5354 3.24086 14.5354H16.0642C17.2737 14.5354 18.1423 15.0727 18.1423 15.9502C18.1423 16.6925 17.6069 17.0984 17.0676 17.4328C15.7945 18.2407 14.9894 18.983 14.9894 20.6665C14.9894 21.6097 15.2591 22.8217 15.729 24.4376L20.6962 40.4051C20.7618 40.5403 20.7618 40.6061 20.8965 40.6061C21.0312 40.6061 21.1007 40.6061 21.1661 40.4051L30.2972 14.6707C30.4283 14.2648 30.7672 14.0637 31.372 14.0637H36.472C37.0769 14.0637 37.412 14.1991 37.5467 14.6707L46.2734 40.4051C46.339 40.6061 46.4083 40.6757 46.5393 40.6757C46.6741 40.6757 46.7434 40.6061 46.8088 40.4051L50.7708 29.0184C52.1149 25.1779 52.6485 22.8874 52.6485 21.3371C52.6485 19.1821 51.7087 18.4398 50.1658 17.4308C49.6304 17.0945 49.226 16.7543 49.226 16.016C49.226 14.9374 50.3008 14.5334 51.5738 14.5334H61.8452C63.4572 14.5334 64.1968 15.0708 64.1968 16.016C64.1987 16.7543 63.6614 17.226 62.9911 17.6319Z" fill="var(--fill-0, #24282A)"/>
<path id="Vector_3" d="M99.0295 32.5399C99.0295 42.6432 91.4448 51.0648 81.2447 51.0648C70.7038 51.0648 63.5198 43.9903 63.5198 33.0116C63.5198 22.8388 71.0389 14.5525 81.3757 14.4172C92.4541 14.4172 99.0295 22.2319 99.0295 32.5399ZM80.7054 18.5922C75.8057 18.5922 72.3812 22.8388 72.3812 30.3132C72.3812 38.8702 75.7382 46.7525 81.9786 46.7525C87.3483 46.7525 90.2353 41.4988 90.2353 34.6951C90.2372 27.1511 87.3501 18.5922 80.7054 18.5922Z" fill="var(--fill-0, #24282A)"/>
<path id="Vector_4" d="M139.363 32.5399C139.363 42.6432 131.778 51.0648 121.572 51.0648C111.031 51.0648 103.853 43.9903 103.853 33.0116C103.853 22.8388 111.37 14.5525 121.709 14.4172C132.783 14.4172 139.363 22.2319 139.363 32.5399ZM121.039 18.5922C116.139 18.5922 112.713 22.8388 112.713 30.3132C112.713 38.8702 116.07 46.7525 122.314 46.7525C127.683 46.7525 130.571 41.4988 130.571 34.6951C130.571 27.1511 127.683 18.5922 121.039 18.5922Z" fill="var(--fill-0, #24282A)"/>
<path id="Vector_5" d="M159.431 48.844C159.431 49.853 158.422 50.3245 157.214 50.3245H144.325C143.118 50.3245 142.112 49.853 142.112 48.844C142.112 48.0322 142.717 47.5605 143.522 47.0908C144.597 46.4839 145.471 45.6759 145.87 44.7347C146.34 43.7218 146.675 42.2431 146.675 37.5945V12.8015C146.675 10.3757 146.675 8.89126 146.14 7.88422C145.67 7.0067 144.999 6.46549 143.792 5.9958C142.983 5.65948 141.979 5.25744 141.979 4.3799C141.979 3.57197 142.449 3.03076 143.992 2.69637C146.34 2.22475 148.892 1.48252 150.637 0.811811C151.916 0.340188 152.52 0 153.326 0C154.266 0 154.936 0.475488 154.936 2.02373V37.5945C154.936 42.2431 155.271 43.7218 155.745 44.6689C156.215 45.6122 157.02 46.4182 158.023 47.0908C158.826 47.6301 159.431 48.0322 159.431 48.844Z" fill="var(--fill-0, #24282A)"/>
</g>
</svg>
